<?xml version="1.0" encoding="utf-8"?>
<!-- Generator: Adobe Illustrator 23.0.1, SVG Export Plug-In . SVG Version: 6.00 Build 0)  -->
<svg version="1.1" xmlns="http://www.w3.org/2000/svg" xmlns:xlink="http://www.w3.org/1999/xlink" x="0px" y="0px"
	 viewBox="0 0 439 314.79" style="enable-background:new 0 0 439 314.79;" xml:space="preserve">
<style type="text/css">
	.st0{display:none;}
	.st1{display:inline;fill:#C49A6E;}
	.st2{display:inline;opacity:0.2;}
	.st3{fill:#FFFFFF;}
	.st4{fill:#CE0E2D;}
	.st5{fill:none;stroke:#000000;stroke-width:0;stroke-linecap:round;stroke-linejoin:round;}
	.st6{display:inline;}
</style>
<g id="Layer_2" class="st0">
	<rect x="1328.71" y="-333.35" class="st1" width="1623.31" height="987.14"/>
	<rect x="3268.71" y="-333.35" class="st1" width="1623.31" height="987.14"/>
</g>
<g id="Layer_3" class="st0">
	<g class="st2">
		<path class="st3" d="M-193.7-29.32c-7.81-2.21-14.66-5.95-20.45-10.76c6.48,24.36,16.93,47.11,30.63,67.51l11.86-11.86
			c0.54-0.54,1.19-0.91,1.84-1.22L-184-27.54C-187.22-27.88-190.46-28.4-193.7-29.32z"/>
		<path class="st3" d="M-159.43-102.35c0-3.68-2.98-6.66-6.66-6.66h-52.68c-3.68,0-6.66,2.98-6.66,6.66s2.98,6.66,6.66,6.66h52.68
			C-162.41-95.69-159.43-98.67-159.43-102.35z"/>
		<path class="st3" d="M351.77,478.76l-12.53-36l-34.33,4.03c-8.41,0.99-16.82,1.48-25.2,1.48c-11.13,0-22.18-0.91-33.09-2.6
			l-1.1,1.52l23.33,40.23c17.67,30.49,47.61,51.98,82.14,58.98l5.29,1.07c13.54,2.76,27.23-4.48,32.61-17.19
			c5.88-13.91-0.01-30.25-13.41-37.2L355,482.48C353.49,481.7,352.33,480.37,351.77,478.76z"/>
		<path class="st3" d="M484.93,519.47c-0.01-0.02-0.03-0.03-0.04-0.05c-1.9,2.95-3.86,5.87-5.89,8.74
			C481.04,525.3,483.04,522.42,484.93,519.47z"/>
		<path class="st3" d="M734.79,3.71c16.65,45.68,9.16,97.15-20.05,136.28c12.31,5.61,23.64,12.95,33.71,21.74
			C779.18,112.78,774.71,47.88,734.79,3.71z"/>
		<path class="st3" d="M228.14-59.34l41.57-59.79c1.4-11.63,0.83-23.56-1.96-35.34l-12.44-52.58c-0.04-0.16-0.13-0.55-0.68-0.65
			c-0.58-0.12-0.79,0.21-0.89,0.36L177.96-98.35C196.55-88.04,213.45-74.85,228.14-59.34z"/>
		<path class="st3" d="M858.31,493.1l-20.47-10.61c-1.51-0.78-2.66-2.11-3.22-3.72l-51.53-148.02c-0.25-0.71-0.37-1.44-0.37-2.19
			v-62.59c0-0.04,0.02-0.07,0.02-0.11l-0.03,0c-0.06-68.94-56.16-125.01-125.11-125.01H322.3h-5.78l-0.53-1.2L76.89,244.84
			c0.16,6.31,0.57,8.54,2.09,17.01c0,0.02,0.05,0.02,0.05,0.04c6.53,43.73,27.15,84.41,59.09,115.5l21.7-56.01
			c1.33-3.44,5.2-5.13,8.62-3.81c3.43,1.33,5.13,5.19,3.81,8.62l-61.1,157.66c-8.13,20.99-19.23,40.68-32.96,58.53l-4.25,5.52
			c-4.12,5.35-4.8,12.16-1.82,18.21c2.98,6.06,8.79,9.68,15.55,9.68h8.2c25.23,0,49.1-12.21,63.87-32.65l92.41-127.91
			c2.15-2.99,6.33-3.65,9.3-1.5c2.98,2.15,3.65,6.32,1.5,9.31l-7.49,10.37c15.77,1.9,31.84,2.02,47.89,0.14l322.65-37.92
			c-58.51-16.46-101.58-70.18-101.58-133.88c0-3.68,2.98-6.66,6.66-6.66c3.68,0,6.66,2.98,6.66,6.66
			c0,69.39,56.46,125.85,125.85,125.85h26.37c2.38,0,4.57,1.26,5.77,3.32l55.95,96.49c17.67,30.49,47.61,51.99,82.14,58.98
			l5.29,1.07c13.52,2.76,27.23-4.48,32.6-17.19C877.61,516.39,871.71,500.05,858.31,493.1z"/>
		<path class="st3" d="M120.66-54.32C98.06-70.03,67-64.44,51.29-41.85c-15.71,22.6-10.13,53.65,12.47,69.36
			c22.6,15.71,53.65,10.13,69.36-12.47C148.83-7.55,143.26-38.61,120.66-54.32z M113.12,0.55c-7.92,11.4-23.58,14.22-34.98,6.29
			c-11.4-7.92-14.21-23.58-6.29-34.98c7.92-11.4,23.58-14.21,34.98-6.29C118.23-26.51,121.04-10.85,113.12,0.55z"/>
		<path class="st3" d="M291.2,83.6L254.19,2.71c-1.66,0.07-3.29,0.28-4.96,0.28h-10.31c-3.68,0-6.66-2.98-6.66-6.66
			c0-3.68,2.98-6.66,6.66-6.66h10.31c30.97,0,59.76-13.93,78.97-38.22c19.21-24.3,26.14-55.51,19.01-85.65l-12.45-52.58
			c-0.04-0.16-0.13-0.55-0.68-0.65c-0.56-0.14-0.78,0.21-0.88,0.36L219.5-23.55c-2.1,3.03-6.25,3.78-9.28,1.67
			c-3.02-2.1-3.77-6.25-1.67-9.28l11.82-17c-36.16-39.31-87.72-62.92-142.75-62.92h-190.81c-1.28,22.71-9.03,44.2-22.74,62.5
			c-7.21,9.62-16.84,16.13-27.57,19.27l22.33,65.97l0.31,0.31c34-5.68,60.03-35.23,60.03-70.82v-10.73c0-5.52,4.47-10,9.99-10
			s10,4.48,10,10v10.73c0,45.05-32.62,82.55-75.46,90.32l-1.26,1.26l0,0l-10.69,10.68c40.13,36.69,93.51,59.11,152.04,59.11h66.23
			c3.68,0,6.66,2.98,6.66,6.66V166v12.54v9.96l218.42-96.06L291.2,83.6z M253.52-43.27c21.5,0,41.47-9.67,54.81-26.53
			c13.34-16.86,18.14-38.53,13.19-59.44l-3.15-13.3c-0.85-3.58,1.37-7.17,4.95-8.02c3.6-0.85,7.17,1.37,8.02,4.95l3.15,13.3
			c5.9,24.9,0.17,50.7-15.71,70.78c-15.88,20.07-39.66,31.59-65.26,31.59c-3.68,0-6.66-2.98-6.66-6.66
			C246.86-40.29,249.85-43.27,253.52-43.27z M153.81,29.43C130.16,63.45,83.41,71.86,49.38,48.2C15.36,24.55,6.96-22.21,30.61-56.23
			C54.27-90.25,101.02-98.66,135.04-75C169.06-51.35,177.47-4.6,153.81,29.43z"/>
		<path class="st3" d="M518.11,483.87c-8.13,20.99-19.22,40.68-32.97,58.53l-4.25,5.52c-4.12,5.36-4.8,12.16-1.82,18.22
			c2.98,6.06,8.79,9.68,15.55,9.68h8.2c25.22,0,49.1-12.21,63.87-32.65l100.37-138.92l-123.73,14.54L518.11,483.87z"/>
		<path class="st4" d="M135.04-75C101.02-98.66,54.27-90.25,30.61-56.23C6.96-22.21,15.36,24.55,49.38,48.2
			c34.02,23.66,80.78,15.25,104.43-18.77C177.47-4.6,169.06-51.35,135.04-75z M133.12,15.05c-15.71,22.6-46.76,28.18-69.36,12.47
			C41.17,11.81,35.58-19.25,51.29-41.85C67-64.44,98.06-70.03,120.66-54.32C143.26-38.61,148.83-7.55,133.12,15.05z"/>
		<path class="st4" d="M106.83-34.43c-11.4-7.92-27.06-5.11-34.98,6.29c-7.92,11.4-5.11,27.06,6.29,34.98
			c11.4,7.92,27.06,5.11,34.98-6.29C121.04-10.85,118.23-26.51,106.83-34.43z"/>
		<polygon class="st4" points="310.33,93.37 310.5,93.74 307.51,86.98 307.42,87.02 310.33,93.37 		"/>
		<path class="st4" d="M312.08,130.79l0.03-0.01l-15.49-35l-0.02,0.01l-1.48-3.35L76.69,188.5v4.61v5.15v33.72
			c0,0.99,0.06,1.97,0.08,2.96c0.04,4.34,0.06,7.44,0.12,9.91l239.1-105.21L312.08,130.79z"/>
		<path d="M-394.51,151.44c-1.69-3.27-5.71-4.54-8.98-2.86c-3.27,1.69-4.55,5.71-2.86,8.98l22.69,43.86c1.18,2.29,3.51,3.6,5.92,3.6
			c1.03,0,2.08-0.24,3.05-0.74c3.27-1.69,4.55-5.71,2.86-8.98L-394.51,151.44z"/>
		<path d="M253.52-29.95c25.6,0,49.38-11.52,65.26-31.59c15.88-20.07,21.6-45.88,15.71-70.78l-3.15-13.3
			c-0.85-3.58-4.42-5.79-8.02-4.95c-3.58,0.85-5.8,4.44-4.95,8.02l3.15,13.3c4.95,20.91,0.15,42.58-13.19,59.44
			C295-52.94,275.02-43.27,253.52-43.27c-3.68,0-6.66,2.98-6.66,6.66C246.86-32.93,249.85-29.95,253.52-29.95z"/>
		<path d="M464.96,565.95c-0.13-0.5-0.23-1.01-0.33-1.52C464.8,565.4,464.96,565.95,464.96,565.95z"/>
		<path d="M874.94,489.04c-3.02-3.05-6.51-5.71-10.49-7.77l-18.11-9.39l-7.87-22.61l-34.4-98.83l-8.01-23.02v-61.47
			c0-36.65-14.41-69.92-37.74-94.71c31.71-48.35,31.47-111.63-0.67-159.77L744.31-5.35c-1.58-1.74-3.05-3.55-4.73-5.23l-12.67-12.66
			c-3.52-3.51-9.26-3.54-12.8-0.03c-2.92,2.9-3.52,7.41-1.46,10.96c27.08,46.93,22.13,105.37-10.91,147.16
			c-12.82-4.33-26.46-6.81-40.64-7.17l-335.16-0.18L310.5,93.74l-0.17-0.37v0l-2.91-6.35l-23.7-51.78v0L268.17,1.24
			c0,0,98.56-19.5,93.69-119.3c0,0-6.21-34.75-13-67.03l-1.13-4.78c-1.31-5.52-5.59-9.62-11.17-10.68
			c-5.59-1.04-11.07,1.18-14.31,5.84l-16.52,23.76h-0.1l-21.91,31.65v0l-0.35,0.5l-0.66-7.04c-0.46-3.91-1.08-7.81-2-11.71
			l-12.44-52.58c-12.69-19.9-25.48-4.83-25.48-4.83l-42.26,60.79v0L187.21-135v0l-21.23,30.54c-6.04-2.86-12.23-5.41-18.54-7.68
			v-0.06c-29.68-9.37-69.81-12.21-69.81-12.21H-99.06h-13.33h-53.31h-13.33h-29.66c-14.55,0-26.38,11.84-26.38,26.39
			c0,44.95,12.5,87.04,34.18,122.98l-51.66-26.72c-15.39-7.95-33.96-5.07-46.21,7.18l-131.58,131.58
			c-12.24,12.25-15.13,30.82-7.17,46.21l33.48,64.73l-16.15,16.15c-1.25,1.25-1.95,2.94-1.95,4.71c0,1.77,0.7,3.46,1.95,4.71
			l28.71,28.71c1.3,1.3,3.01,1.95,4.71,1.95s3.41-0.65,4.71-1.95l4.02-4.02l199-198.99l13.33-13.33l8.04-8.04
			c13.71,12.6,28.9,23.59,45.26,32.74c0,0,24.02,12.56,49.25,20.65c9.64,2.83,19.54,5.04,29.64,6.64
			c4.88,0.66,12.68,1.63,20.67,2.33c5.5,0.38,11.03,0.65,16.63,0.65h59.56v6.77v14.19v24.48v4.01v24.48v14.19v3.02
			c0,0,0.73,22.19,4.88,45.01c2.82,13.28,6.82,26.24,12.05,38.69c0.24,0.58,0.52,1.14,0.77,1.71c11.86,27.56,29.4,52.65,51.86,73.41
			L93.46,494.33l-16.74,27.43l-16.06,22.31c-0.52,0.99-0.95,2.01-1.36,3.03c-1.23,4.18-3.36,14.04,0.25,23.36
			c0.05,0.12,0.09,0.24,0.14,0.35c0.26,0.65,0.57,1.29,0.89,1.94c0.56,1.06,1.13,2.1,1.79,3.07c0,0,12.02,15.68,51.07,12.89
			c0,0,26.5-6.51,47.42-26.5l0.01,0c3.49-3.46,6.75-7.19,9.67-11.23l16.66-23.07l13.33-18.45l5.13-7.1c0,0,29.4-39.92,32.36-41.52
			l1.92,3.31c5.15,8.85,19.4,33.11,27.34,44.47c1.56,2,3.17,3.95,4.82,5.87c0,0,18.24,21.57,46.9,35.28c0,0,14.46,5.82,24.15,8.51
			c1.71,0.43,3.44,0.83,5.18,1.18c1.42,0.11,15.11,2.45,25.78,0.08c2.87-0.88,5.63-2.07,8.26-3.51c0,0,11.99-8.61,17.59-18.1
			c0.41-0.81,0.83-1.62,1.19-2.46c0.53-1.26,0.98-2.54,1.38-3.82c0,0,6.39-22.54-10.44-42.64c-3.02-3.05-6.51-5.71-10.49-7.77
			l-18.12-9.39l-7.87-22.61l-2.4-8.29l44.12-5.04l25.71-3.02l104.89-12.77l-4.44,12.66c0.03,0.01,0.06,0.03,0.1,0.04l-1.2,3.08
			l-5.27,13.33h0.1l-11.55,29.79c-1.31,3.38-2.81,6.67-4.28,9.98l-6.48,13.33c-3.08,5.83-6.45,11.5-10.02,17.05
			c0.01,0.02,0.03,0.03,0.04,0.05c-1.89,2.95-3.88,5.84-5.93,8.69c2.03-2.87,3.99-5.79,5.89-8.74l-10.35,14.5
			c0.09,0.01,0.18,0.04,0.27,0.05c-0.08,0.1-0.15,0.22-0.23,0.32l-4.25,5.51c-7.3,10.62-6.39,20.86-5.71,24.63
			c0.1,0.51,0.21,1.02,0.34,1.53c4.91,16.26,21.86,20.79,21.86,20.79c5.56,2.1,13.21,1.95,18.91,1.4
			c27.73-3.37,44.48-12.34,44.48-12.34c4.07-2.45,7.9-5.28,11.58-8.31c2.79-2.3,5.46-4.75,7.97-7.38v0
			c2.75-2.88,5.38-5.88,7.75-9.15l35.12-48.61l9.63-13.33l28.73-39.77l9.63-13.33l2-2.77l8.09-11.19l14.78-20.45
			c0.3-0.06,0.61-0.09,0.91-0.15l7.02,12.12l9.11,15.7c0,0,0,0,0,0l3.91,6.75l7.73,13.33l19.06,32.87
			c12.83,20.21,24.43,35.73,24.43,35.73c19.35,21.1,45.03,35.83,73.54,41.62l5.29,1.07c2.8,0.57,5.6,0.84,8.38,0.84
			c16.76,0,32.43-10.01,39.15-25.9c4.62-10.92,4.22-22.85-0.14-33.13C879.8,494.25,874.94,489.04,874.94,489.04z M734.79,3.71
			c39.92,44.17,44.4,109.07,13.66,158.02c-10.07-8.79-21.4-16.13-33.71-21.74C743.95,100.85,751.44,49.39,734.79,3.71z
			 M253.74-207.34c0.1-0.14,0.31-0.48,0.89-0.36c0.55,0.1,0.64,0.49,0.68,0.65l12.44,52.58c2.79,11.78,3.36,23.71,1.96,35.34
			l-41.57,59.79c-14.69-15.51-31.6-28.7-50.18-39.01L253.74-207.34z M-394.13,238.04l-31.53-60.96
			c-5.28-10.21-3.36-22.53,4.76-30.67l131.58-131.58c5.07-5.07,11.76-7.72,18.56-7.72c4.11,0,8.25,0.97,12.1,2.96l60.96,31.53
			L-394.13,238.04z M-171.66,15.57l-11.86,11.86c-13.71-20.4-24.15-43.15-30.63-67.51c5.79,4.81,12.65,8.55,20.45,10.76
			c3.24,0.92,6.48,1.44,9.7,1.78l14.18,41.89C-170.48,14.66-171.12,15.03-171.66,15.57z M-166.09-95.69h-52.68
			c-3.68,0-6.66-2.98-6.66-6.66s2.98-6.66,6.66-6.66h52.68c3.68,0,6.66,2.98,6.66,6.66S-162.41-95.69-166.09-95.69z M355,482.48
			l20.47,10.61c13.4,6.96,19.29,23.3,13.41,37.2c-5.37,12.7-19.07,19.94-32.61,17.19l-5.29-1.07c-34.53-7-64.47-28.5-82.14-58.98
			l-23.33-40.23l1.1-1.52c10.91,1.69,21.96,2.6,33.09,2.6c8.38,0,16.8-0.49,25.2-1.48l34.33-4.03l12.53,36
			C352.33,480.37,353.49,481.7,355,482.48z M566.69,543.16c-14.77,20.45-38.65,32.65-63.87,32.65h-8.2
			c-6.75,0-12.57-3.62-15.55-9.68c-2.98-6.06-2.3-12.86,1.82-18.22l4.25-5.52c13.74-17.86,24.83-37.55,32.97-58.53l25.23-65.09
			l123.73-14.54L566.69,543.16z M871.72,530.3c-5.38,12.71-19.09,19.94-32.6,17.19l-5.29-1.07c-34.53-7-64.47-28.5-82.14-58.98
			l-55.95-96.49c-1.19-2.06-3.39-3.32-5.77-3.32H663.6c-69.39,0-125.85-56.46-125.85-125.85c0-3.68-2.98-6.66-6.66-6.66
			c-3.68,0-6.66,2.98-6.66,6.66c0,63.7,43.07,117.42,101.58,133.88l-322.65,37.92c-16.05,1.89-32.11,1.76-47.89-0.14l7.49-10.37
			c2.15-2.99,1.48-7.15-1.5-9.31c-2.98-2.15-7.15-1.49-9.3,1.5l-92.41,127.91c-14.77,20.45-38.64,32.65-63.87,32.65h-8.2
			c-6.75,0-12.57-3.62-15.55-9.68c-2.98-6.06-2.3-12.86,1.82-18.21l4.25-5.52c13.74-17.85,24.83-37.54,32.96-58.53l61.1-157.66
			c1.33-3.43-0.37-7.29-3.81-8.62c-3.42-1.33-7.29,0.37-8.62,3.81l-21.7,56.01c-31.94-31.09-52.56-71.77-59.09-115.5
			c-0.01-0.02-0.05-0.02-0.05-0.04c-1.52-8.47-1.93-10.7-2.09-17.01c-0.06-2.47-0.09-5.57-0.12-9.91c-0.01-0.99-0.08-1.97-0.08-2.96
			v-33.72v-5.15v-4.61v-9.96V166v-31.83c0-3.68-2.98-6.66-6.66-6.66H3.8c-58.53,0-111.91-22.42-152.04-59.11l10.69-10.68l0,0
			l1.26-1.26c42.84-7.77,75.46-45.28,75.46-90.32v-10.73c0-5.52-4.47-10-10-10s-9.99,4.48-9.99,10v10.73
			c0,35.59-26.02,65.14-60.03,70.82l-0.31-0.31l-22.33-65.97c10.72-3.14,20.36-9.65,27.57-19.27c13.71-18.3,21.46-39.79,22.74-62.5
			H77.62c55.03,0,106.59,23.61,142.75,62.92l-11.82,17c-2.1,3.03-1.35,7.18,1.67,9.28c3.03,2.11,7.18,1.36,9.28-1.67l113.7-163.54
			c0.09-0.14,0.32-0.49,0.88-0.36c0.55,0.1,0.64,0.49,0.68,0.65l12.45,52.58c7.13,30.14,0.2,61.36-19.01,85.65
			c-19.22,24.29-48,38.22-78.97,38.22h-10.31c-3.68,0-6.66,2.98-6.66,6.66c0,3.68,2.98,6.66,6.66,6.66h10.31
			c1.67,0,3.3-0.21,4.96-0.28L291.2,83.6l3.91,8.84l1.48,3.35l0.02-0.01l15.49,35l-0.03,0.01l3.91,8.84l0.53,1.2h5.78h335.3
			c68.95,0,125.05,56.07,125.11,125.01l0.03,0c0,0.04-0.02,0.07-0.02,0.11v62.59c0,0.75,0.12,1.48,0.37,2.19l51.53,148.02
			c0.56,1.61,1.71,2.94,3.22,3.72l20.47,10.61C871.71,500.05,877.61,516.39,871.72,530.3z"/>
		<line class="st5" x1="402.53" y1="531.67" x2="402.53" y2="531.68"/>
	</g>
</g>
<g id="Layer_11" class="st0">
	<g class="st2">
		<path class="st3" d="M156.3-29.32c-7.81-2.21-14.66-5.95-20.45-10.76c6.48,24.36,16.93,47.11,30.63,67.51l11.86-11.86
			c0.54-0.54,1.19-0.91,1.84-1.22L166-27.54C162.78-27.88,159.54-28.4,156.3-29.32z"/>
		<path class="st3" d="M190.57-102.35c0-3.68-2.98-6.66-6.66-6.66h-52.68c-3.68,0-6.66,2.98-6.66,6.66s2.98,6.66,6.66,6.66h52.68
			C187.59-95.69,190.57-98.67,190.57-102.35z"/>
		<path class="st3" d="M701.77,478.76l-12.53-36l-34.33,4.03c-8.41,0.99-16.82,1.48-25.2,1.48c-11.13,0-22.18-0.91-33.09-2.6
			l-1.1,1.52l23.33,40.23c17.67,30.49,47.61,51.98,82.14,58.98l5.29,1.07c13.54,2.76,27.23-4.48,32.61-17.19
			c5.88-13.91-0.01-30.25-13.41-37.2L705,482.48C703.49,481.7,702.33,480.37,701.77,478.76z"/>
		<path class="st3" d="M834.93,519.47c-0.01-0.02-0.03-0.03-0.04-0.05c-1.9,2.95-3.86,5.87-5.89,8.74
			C831.04,525.3,833.04,522.42,834.93,519.47z"/>
		<path class="st3" d="M1084.79,3.71c16.65,45.68,9.16,97.15-20.05,136.28c12.31,5.61,23.64,12.95,33.71,21.74
			C1129.18,112.78,1124.71,47.88,1084.79,3.71z"/>
		<path class="st3" d="M578.14-59.34l41.57-59.79c1.4-11.63,0.83-23.56-1.96-35.34l-12.44-52.58c-0.04-0.16-0.13-0.55-0.68-0.65
			c-0.58-0.12-0.79,0.21-0.89,0.36L527.96-98.35C546.55-88.04,563.45-74.85,578.14-59.34z"/>
		<path class="st3" d="M1208.31,493.1l-20.47-10.61c-1.51-0.78-2.66-2.11-3.22-3.72l-51.53-148.02c-0.25-0.71-0.37-1.44-0.37-2.19
			v-62.59c0-0.04,0.02-0.07,0.02-0.11l-0.03,0c-0.06-68.94-56.16-125.01-125.11-125.01H672.3h-5.78l-0.53-1.2l-239.1,105.21
			c0.16,6.31,0.57,8.54,2.09,17.01c0,0.02,0.05,0.02,0.05,0.04c6.53,43.73,27.15,84.41,59.09,115.5l21.7-56.01
			c1.33-3.44,5.2-5.13,8.62-3.81c3.43,1.33,5.13,5.19,3.81,8.62l-61.1,157.66c-8.13,20.99-19.23,40.68-32.96,58.53l-4.25,5.52
			c-4.12,5.35-4.8,12.16-1.82,18.21c2.98,6.06,8.79,9.68,15.55,9.68h8.2c25.23,0,49.1-12.21,63.87-32.65l92.41-127.91
			c2.15-2.99,6.33-3.65,9.3-1.5c2.98,2.15,3.65,6.32,1.5,9.31l-7.49,10.37c15.77,1.9,31.84,2.02,47.89,0.14l322.65-37.92
			c-58.51-16.46-101.58-70.18-101.58-133.88c0-3.68,2.98-6.66,6.66-6.66c3.68,0,6.66,2.98,6.66,6.66
			c0,69.39,56.46,125.85,125.85,125.85h26.37c2.38,0,4.57,1.26,5.77,3.32l55.95,96.49c17.67,30.49,47.61,51.99,82.14,58.98
			l5.29,1.07c13.52,2.76,27.23-4.48,32.6-17.19C1227.61,516.39,1221.71,500.05,1208.31,493.1z"/>
		<path class="st3" d="M470.66-54.32C448.06-70.03,417-64.44,401.29-41.85c-15.71,22.6-10.13,53.65,12.47,69.36
			c22.6,15.71,53.65,10.13,69.36-12.47C498.83-7.55,493.26-38.61,470.66-54.32z M463.12,0.55c-7.92,11.4-23.58,14.22-34.98,6.29
			c-11.4-7.92-14.21-23.58-6.29-34.98c7.92-11.4,23.58-14.21,34.98-6.29C468.23-26.51,471.04-10.85,463.12,0.55z"/>
		<path class="st3" d="M641.2,83.6L604.19,2.71c-1.66,0.07-3.29,0.28-4.96,0.28h-10.31c-3.68,0-6.66-2.98-6.66-6.66
			c0-3.68,2.98-6.66,6.66-6.66h10.31c30.97,0,59.76-13.93,78.97-38.22c19.21-24.3,26.14-55.51,19.01-85.65l-12.45-52.58
			c-0.04-0.16-0.13-0.55-0.68-0.65c-0.56-0.14-0.78,0.21-0.88,0.36L569.5-23.55c-2.1,3.03-6.25,3.78-9.28,1.67
			c-3.02-2.1-3.77-6.25-1.67-9.28l11.82-17c-36.16-39.31-87.72-62.92-142.75-62.92H236.81c-1.28,22.71-9.03,44.2-22.74,62.5
			c-7.21,9.62-16.84,16.13-27.57,19.27l22.33,65.97l0.31,0.31c34-5.68,60.03-35.23,60.03-70.82v-10.73c0-5.52,4.47-10,9.99-10
			c5.52,0,10,4.48,10,10v10.73c0,45.05-32.62,82.55-75.46,90.32l-1.26,1.26l0,0L201.77,68.4c40.13,36.69,93.51,59.11,152.04,59.11
			h66.23c3.68,0,6.66,2.98,6.66,6.66V166v12.54v9.96l218.42-96.06L641.2,83.6z M603.52-43.27c21.5,0,41.47-9.67,54.81-26.53
			c13.34-16.86,18.14-38.53,13.19-59.44l-3.15-13.3c-0.85-3.58,1.37-7.17,4.95-8.02c3.6-0.85,7.17,1.37,8.02,4.95l3.15,13.3
			c5.9,24.9,0.17,50.7-15.71,70.78c-15.88,20.07-39.66,31.59-65.26,31.59c-3.68,0-6.66-2.98-6.66-6.66
			C596.86-40.29,599.85-43.27,603.52-43.27z M503.81,29.43c-23.65,34.02-70.41,42.43-104.43,18.77
			c-34.02-23.65-42.42-70.41-18.77-104.43C404.27-90.25,451.02-98.66,485.04-75C519.06-51.35,527.47-4.6,503.81,29.43z"/>
		<path class="st3" d="M868.11,483.87c-8.13,20.99-19.22,40.68-32.97,58.53l-4.25,5.52c-4.12,5.36-4.8,12.16-1.82,18.22
			c2.98,6.06,8.79,9.68,15.55,9.68h8.2c25.22,0,49.1-12.21,63.87-32.65l100.37-138.92l-123.73,14.54L868.11,483.87z"/>
		<path class="st4" d="M485.04-75c-34.02-23.66-80.77-15.25-104.43,18.78c-23.65,34.02-15.25,80.77,18.77,104.43
			c34.02,23.66,80.78,15.25,104.43-18.77C527.47-4.6,519.06-51.35,485.04-75z M483.12,15.05c-15.71,22.6-46.76,28.18-69.36,12.47
			c-22.59-15.71-28.18-46.76-12.47-69.36c15.71-22.6,46.77-28.18,69.36-12.48C493.26-38.61,498.83-7.55,483.12,15.05z"/>
		<path class="st4" d="M456.83-34.43c-11.4-7.92-27.06-5.11-34.98,6.29c-7.92,11.4-5.11,27.06,6.29,34.98
			c11.4,7.92,27.06,5.11,34.98-6.29C471.04-10.85,468.23-26.51,456.83-34.43z"/>
		<polygon class="st4" points="660.33,93.37 660.5,93.74 657.51,86.98 657.42,87.02 660.33,93.37 		"/>
		<path class="st4" d="M662.08,130.79l0.03-0.01l-15.49-35l-0.02,0.01l-1.48-3.35L426.69,188.5v4.61v5.15v33.72
			c0,0.99,0.06,1.97,0.08,2.96c0.04,4.34,0.06,7.44,0.12,9.91l239.1-105.21L662.08,130.79z"/>
		<path d="M-44.51,151.44c-1.69-3.27-5.71-4.54-8.98-2.86c-3.27,1.69-4.55,5.71-2.86,8.98l22.69,43.86c1.18,2.29,3.51,3.6,5.92,3.6
			c1.03,0,2.08-0.24,3.05-0.74c3.27-1.69,4.55-5.71,2.86-8.98L-44.51,151.44z"/>
		<path d="M603.52-29.95c25.6,0,49.38-11.52,65.26-31.59c15.88-20.07,21.6-45.88,15.71-70.78l-3.15-13.3
			c-0.85-3.58-4.42-5.79-8.02-4.95c-3.58,0.85-5.8,4.44-4.95,8.02l3.15,13.3c4.95,20.91,0.15,42.58-13.19,59.44
			C645-52.94,625.02-43.27,603.52-43.27c-3.68,0-6.66,2.98-6.66,6.66C596.86-32.93,599.85-29.95,603.52-29.95z"/>
		<path d="M814.96,565.95c-0.13-0.5-0.23-1.01-0.33-1.52C814.8,565.4,814.96,565.95,814.96,565.95z"/>
		<path d="M1224.94,489.04c-3.02-3.05-6.51-5.71-10.49-7.77l-18.11-9.39l-7.87-22.61l-34.4-98.83l-8.01-23.02v-61.47
			c0-36.65-14.41-69.92-37.74-94.71c31.71-48.35,31.47-111.63-0.67-159.77l-13.33-16.82c-1.58-1.74-3.05-3.55-4.73-5.23
			l-12.67-12.66c-3.52-3.51-9.26-3.54-12.8-0.03c-2.92,2.9-3.52,7.41-1.46,10.96c27.08,46.93,22.13,105.37-10.91,147.16
			c-12.82-4.33-26.46-6.81-40.64-7.17l-335.16-0.18L660.5,93.74l-0.17-0.37v0l-2.91-6.35l-23.7-51.78v0L618.17,1.24
			c0,0,98.56-19.5,93.69-119.3c0,0-6.21-34.75-13-67.03l-1.13-4.78c-1.31-5.52-5.59-9.62-11.17-10.68
			c-5.59-1.04-11.07,1.18-14.31,5.84l-16.52,23.76h-0.1l-21.91,31.65v0l-0.35,0.5l-0.66-7.04c-0.46-3.91-1.08-7.81-2-11.71
			l-12.44-52.58c-12.69-19.9-25.48-4.83-25.48-4.83l-42.26,60.79v0L537.21-135v0l-21.23,30.54c-6.04-2.86-12.23-5.41-18.54-7.68
			v-0.06c-29.68-9.37-69.81-12.21-69.81-12.21H250.94h-13.33H184.3h-13.33h-29.66c-14.55,0-26.38,11.84-26.38,26.39
			c0,44.95,12.5,87.04,34.18,122.98L97.46-1.76C82.07-9.71,63.5-6.83,51.25,5.41L-80.33,136.99c-12.24,12.25-15.13,30.82-7.17,46.21
			l33.48,64.73l-16.15,16.15c-1.25,1.25-1.95,2.94-1.95,4.71c0,1.77,0.7,3.46,1.95,4.71l28.71,28.71c1.3,1.3,3.01,1.95,4.71,1.95
			c1.7,0,3.41-0.65,4.71-1.95l4.02-4.02l199-198.99l13.33-13.33l8.04-8.04c13.71,12.6,28.9,23.59,45.26,32.74
			c0,0,24.02,12.56,49.25,20.65c9.64,2.83,19.54,5.04,29.64,6.64c4.88,0.66,12.68,1.63,20.67,2.33c5.5,0.38,11.03,0.65,16.63,0.65
			h59.56v6.77v14.19v24.48v4.01v24.48v14.19v3.02c0,0,0.73,22.19,4.88,45.01c2.82,13.28,6.82,26.24,12.05,38.69
			c0.24,0.58,0.52,1.14,0.77,1.71c11.86,27.56,29.4,52.65,51.86,73.41l-39.47,103.54l-16.74,27.43l-16.06,22.31
			c-0.52,0.99-0.95,2.01-1.36,3.03c-1.23,4.18-3.36,14.04,0.25,23.36c0.05,0.12,0.09,0.24,0.14,0.35c0.26,0.65,0.57,1.29,0.89,1.94
			c0.56,1.06,1.13,2.1,1.79,3.07c0,0,12.02,15.68,51.07,12.89c0,0,26.5-6.51,47.42-26.5l0.01,0c3.49-3.46,6.75-7.19,9.67-11.23
			l16.66-23.07l13.33-18.45l5.13-7.1c0,0,29.4-39.92,32.36-41.52l1.92,3.31c5.15,8.85,19.4,33.11,27.34,44.47
			c1.56,2,3.17,3.95,4.82,5.87c0,0,18.23,21.57,46.9,35.28c0,0,14.46,5.82,24.15,8.51c1.71,0.43,3.44,0.83,5.18,1.18
			c1.42,0.11,15.11,2.45,25.78,0.08c2.87-0.88,5.63-2.07,8.26-3.51c0,0,11.99-8.61,17.59-18.1c0.41-0.81,0.83-1.62,1.19-2.46
			c0.53-1.26,0.98-2.54,1.38-3.82c0,0,6.39-22.54-10.44-42.64c-3.02-3.05-6.51-5.71-10.49-7.77l-18.12-9.39l-7.87-22.61l-2.4-8.29
			l44.12-5.04l25.71-3.02l104.89-12.77l-4.44,12.66c0.03,0.01,0.06,0.03,0.1,0.04l-1.2,3.08l-5.27,13.33h0.1l-11.55,29.79
			c-1.31,3.38-2.81,6.67-4.28,9.98l-6.48,13.33c-3.08,5.83-6.45,11.5-10.02,17.05c0.01,0.02,0.03,0.03,0.04,0.05
			c-1.89,2.95-3.88,5.84-5.93,8.69c2.03-2.87,3.99-5.79,5.89-8.74l-10.35,14.5c0.09,0.01,0.18,0.04,0.27,0.05
			c-0.08,0.1-0.15,0.22-0.23,0.32l-4.25,5.51c-7.3,10.62-6.39,20.86-5.71,24.63c0.1,0.51,0.21,1.02,0.34,1.53
			c4.91,16.26,21.86,20.79,21.86,20.79c5.56,2.1,13.21,1.95,18.91,1.4c27.73-3.37,44.48-12.34,44.48-12.34
			c4.07-2.45,7.9-5.28,11.58-8.31c2.79-2.3,5.46-4.75,7.97-7.38v0c2.75-2.88,5.38-5.88,7.75-9.15l35.12-48.61l9.63-13.33
			l28.73-39.77l9.63-13.33l2-2.77l8.09-11.19l14.78-20.45c0.3-0.06,0.61-0.09,0.91-0.15l7.03,12.12l9.11,15.7c0,0,0,0,0,0l3.91,6.75
			l7.73,13.33l19.06,32.87c12.83,20.21,24.43,35.73,24.43,35.73c19.35,21.1,45.02,35.83,73.54,41.62l5.29,1.07
			c2.8,0.57,5.6,0.84,8.38,0.84c16.76,0,32.43-10.01,39.15-25.9c4.62-10.92,4.22-22.85-0.14-33.13
			C1229.8,494.25,1224.94,489.04,1224.94,489.04z M1084.79,3.71c39.92,44.17,44.4,109.07,13.66,158.02
			c-10.07-8.79-21.4-16.13-33.71-21.74C1093.95,100.85,1101.44,49.39,1084.79,3.71z M603.74-207.34c0.1-0.14,0.31-0.48,0.89-0.36
			c0.55,0.1,0.64,0.49,0.68,0.65l12.44,52.58c2.79,11.78,3.36,23.71,1.96,35.34l-41.57,59.79c-14.69-15.51-31.6-28.7-50.18-39.01
			L603.74-207.34z M-44.13,238.04l-31.53-60.96c-5.28-10.21-3.36-22.53,4.76-30.67L60.67,14.84c5.07-5.07,11.76-7.72,18.56-7.72
			c4.11,0,8.25,0.97,12.1,2.96l60.96,31.53L-44.13,238.04z M178.34,15.57l-11.86,11.86c-13.71-20.4-24.15-43.15-30.63-67.51
			c5.79,4.81,12.65,8.55,20.45,10.76c3.24,0.92,6.48,1.44,9.7,1.78l14.18,41.89C179.52,14.66,178.88,15.03,178.34,15.57z
			 M183.91-95.69h-52.68c-3.68,0-6.66-2.98-6.66-6.66s2.98-6.66,6.66-6.66h52.68c3.68,0,6.66,2.98,6.66,6.66
			S187.59-95.69,183.91-95.69z M705,482.48l20.47,10.61c13.4,6.96,19.29,23.3,13.41,37.2c-5.37,12.7-19.07,19.94-32.61,17.19
			l-5.29-1.07c-34.53-7-64.47-28.5-82.14-58.98l-23.33-40.23l1.1-1.52c10.91,1.69,21.96,2.6,33.09,2.6c8.38,0,16.8-0.49,25.2-1.48
			l34.33-4.03l12.53,36C702.33,480.37,703.49,481.7,705,482.48z M916.69,543.16c-14.77,20.45-38.65,32.65-63.87,32.65h-8.2
			c-6.75,0-12.57-3.62-15.55-9.68c-2.98-6.06-2.3-12.86,1.82-18.22l4.25-5.52c13.74-17.86,24.83-37.55,32.97-58.53l25.23-65.09
			l123.73-14.54L916.69,543.16z M1221.72,530.3c-5.38,12.71-19.09,19.94-32.6,17.19l-5.29-1.07c-34.53-7-64.47-28.5-82.14-58.98
			l-55.95-96.49c-1.19-2.06-3.39-3.32-5.77-3.32h-26.37c-69.39,0-125.85-56.46-125.85-125.85c0-3.68-2.98-6.66-6.66-6.66
			c-3.68,0-6.66,2.98-6.66,6.66c0,63.7,43.07,117.42,101.58,133.88l-322.65,37.92c-16.05,1.89-32.11,1.76-47.89-0.14l7.49-10.37
			c2.15-2.99,1.48-7.15-1.5-9.31c-2.98-2.15-7.15-1.49-9.3,1.5l-92.41,127.91c-14.77,20.45-38.64,32.65-63.87,32.65h-8.2
			c-6.75,0-12.57-3.62-15.55-9.68c-2.98-6.06-2.3-12.86,1.82-18.21l4.25-5.52c13.74-17.85,24.83-37.54,32.96-58.53l61.1-157.66
			c1.33-3.43-0.37-7.29-3.81-8.62c-3.42-1.33-7.29,0.37-8.62,3.81l-21.7,56.01c-31.94-31.09-52.56-71.77-59.09-115.5
			c-0.01-0.02-0.05-0.02-0.05-0.04c-1.52-8.47-1.93-10.7-2.09-17.01c-0.06-2.47-0.09-5.57-0.12-9.91c-0.01-0.99-0.08-1.97-0.08-2.96
			v-33.72v-5.15v-4.61v-9.96V166v-31.83c0-3.68-2.98-6.66-6.66-6.66H353.8c-58.53,0-111.91-22.42-152.04-59.11l10.69-10.68l0,0
			l1.26-1.26c42.84-7.77,75.46-45.28,75.46-90.32v-10.73c0-5.52-4.47-10-10-10c-5.52,0-9.99,4.48-9.99,10v10.73
			c0,35.59-26.02,65.14-60.03,70.82l-0.31-0.31L186.5-29.32c10.72-3.14,20.36-9.65,27.57-19.27c13.71-18.3,21.46-39.79,22.74-62.5
			h190.81c55.03,0,106.59,23.61,142.75,62.92l-11.82,17c-2.1,3.03-1.35,7.18,1.67,9.28c3.03,2.11,7.18,1.36,9.28-1.67l113.7-163.54
			c0.09-0.14,0.32-0.49,0.88-0.36c0.55,0.1,0.64,0.49,0.68,0.65l12.45,52.58c7.13,30.14,0.2,61.36-19.01,85.65
			c-19.22,24.29-48,38.22-78.97,38.22h-10.31c-3.68,0-6.66,2.98-6.66,6.66c0,3.68,2.98,6.66,6.66,6.66h10.31
			c1.67,0,3.3-0.21,4.96-0.28L641.2,83.6l3.91,8.84l1.48,3.35l0.02-0.01l15.49,35l-0.03,0.01l3.91,8.84l0.53,1.2h5.78h335.3
			c68.95,0,125.05,56.07,125.11,125.01l0.03,0c0,0.04-0.02,0.07-0.02,0.11v62.59c0,0.75,0.12,1.48,0.37,2.19l51.53,148.02
			c0.56,1.61,1.71,2.94,3.22,3.72l20.47,10.61C1221.71,500.05,1227.61,516.39,1221.72,530.3z"/>
		<line class="st5" x1="752.53" y1="531.67" x2="752.53" y2="531.68"/>
	</g>
</g>
<g id="Layer_16" class="st0">
	<g class="st6">
		<g>
			<rect x="-327.87" y="50.79" class="st3" width="461.63" height="500.05"/>
			<path d="M123.76,60.79v480.05h-441.63V60.79H123.76 M143.76,40.79h-481.63v520.05h481.63V40.79L143.76,40.79z"/>
		</g>
		<g>
			<path class="st4" d="M-97.06,147.91c83.33,0,150.87,68.45,150.87,152.9c0,84.45-67.54,152.91-150.87,152.91
				c-83.31,0-150.86-68.45-150.86-152.91C-247.92,216.36-180.37,147.91-97.06,147.91z M-197.26,300.81
				c0,56.09,44.86,101.56,100.2,101.56c55.34,0,100.21-45.46,100.21-101.56c0-56.08-44.87-101.55-100.21-101.55
				C-152.4,199.26-197.26,244.73-197.26,300.81z M-146.62,300.81c0,28.29,22.62,51.22,50.54,51.22c27.92,0,50.54-22.92,50.54-51.22
				c0-28.29-22.62-51.22-50.54-51.22C-124,249.59-146.62,272.52-146.62,300.81z"/>
		</g>
	</g>
</g>
<g id="Layer_19">
</g>
<g id="DOG">
	<g id="Layer_18">
	</g>
	<g id="Layer_13">
	</g>
	<g id="Layer_10">
	</g>
	<g id="Layer_17">
	</g>
	<g id="Layer_8">
	</g>
	<g id="white">
	</g>
	<g id="Layer_12">
	</g>
	<g id="Layer_5">
	</g>
	<g id="Layer_6">
	</g>
	<g id="Layer_4">
	</g>
	<g id="Layer_7">
	</g>
	<g id="Layer_9">
	</g>
	<g id="Layer_14">
		<g>
			<path class="st3" d="M76.33,81.1c0.93,3.07,2.18,6.57,3.86,10.28c0.51,1.13,1.06,2.27,1.65,3.44c2.31,4.54,5.27,9.3,9.04,13.92
				c0.06-0.01,0.12-0.02,0.19-0.02c2.43,0.02,4.74-0.1,6.92-0.35l-5.01-13.55l-1.27-3.44l-2.81-7.6c-3.8-0.54-8.23-2.27-13.39-5.59
				C75.76,79.14,76.03,80.11,76.33,81.1z"/>
			<path class="st3" d="M223.4,282.83c2.06-2.99,4.32-7.53,3.45-16.18c-0.55-5.43-2.75-15.03-5.23-24.68
				c-4.04-1.57-7.86-3.4-11.43-5.48c2.27,10.46,4.14,19.9,4.62,24.67c0.76,7.52-0.53,13.39-4.04,18.48
				c-1.96,2.84-2.52,5.25-1.65,7.15c0.41,0.89,1.1,1.66,1.95,2.31c2.69,2.08,6.95,3.01,8.62,3.19c0.48,0.05,0.94,0.09,1.4,0.11
				c-0.33-1.05-0.43-2.15-0.31-3.3C221,287.14,221.87,285.04,223.4,282.83z"/>
			<path class="st3" d="M173.85,141.61c-2.55,0.13-5.07,0.2-7.54,0.22c-0.44,0-0.89,0.01-1.32,0.01c-0.9,0-1.79-0.01-2.68-0.02
				c-3.35-0.05-6.62-0.22-9.81-0.48c-1.36-0.11-2.71-0.24-4.04-0.39c-21.74-2.44-39.48-9.89-52.94-22.29
				c-8.19-7.54-13.74-16.05-17.5-23.83H38.05H34.6h-8.34h-3.45h0H12.65v189.15h174.67v-68.85c-5.72-8.49-9.84-18.5-12.26-29.84
				C170.84,165.58,172.91,147.68,173.85,141.61z"/>
			<path class="st3" d="M39.43,75.6c3.3-7.92,8.03-15.03,14.06-21.13c6.03-6.11,13.05-10.91,20.87-14.26
				c8.1-3.47,16.7-5.23,25.57-5.23c8.87,0,17.47,1.76,25.57,5.23c6.41,2.75,12.29,6.47,17.52,11.09l12,0.12
				c-0.91-1.02-1.84-2.03-2.8-3c-6.79-6.89-14.7-12.29-23.51-16.07c-9.11-3.91-18.79-5.89-28.78-5.89c-9.98,0-19.66,1.98-28.77,5.89
				c-8.81,3.77-16.72,9.18-23.51,16.07c-6.8,6.89-12.13,14.91-15.86,23.84c-2.56,6.15-4.28,12.55-5.15,19.12h8.39
				C35.84,85.97,37.31,80.68,39.43,75.6z"/>
			<path class="st3" d="M99.41,57.19c0-1.37-1.11-2.47-2.47-2.47H77.38c-1.37,0-2.47,1.11-2.47,2.47c0,1.37,1.11,2.47,2.47,2.47
				h19.56C98.3,59.67,99.41,58.56,99.41,57.19z"/>
			<path class="st3" d="M228.92,74.58l15.53-21.84c0.3-3.24,0.25-6.65-0.16-10.24c-1.04-8.99-4.18-16.72-5.94-20.5l-26.78,37.27
				C218.61,63.53,224.36,69.04,228.92,74.58z"/>
			<path class="st3" d="M412.15,114.95c2.63,9.22,3.25,17.98,1.86,26.05c-1.16,6.73-3.72,12.82-7.64,18.21
				c1.43,1.21,2.31,2.05,2.54,2.28c2.96,2.6,5.49,5.64,7.57,9.05c1.19-2.44,2.33-5.17,3.28-8.16c2.33-7.29,3.11-14.64,2.31-21.84
				C421.1,131.77,417.76,123.16,412.15,114.95z"/>
			<path class="st3" d="M415.53,175.96c-0.3-0.63-0.6-1.24-0.93-1.85c-2.07-3.85-4.74-7.22-8-10.08c-0.03-0.02-0.05-0.05-0.08-0.07
				c-0.03-0.03-0.84-0.82-2.29-2.04c-0.4-0.33-0.84-0.7-1.34-1.08c-0.42-0.33-0.88-0.69-1.37-1.05
				c-6.06-4.54-17.1-11.27-30.13-12.01c-27.1-1.55-108.86-5.87-109.68-5.91c-0.29-0.02-0.57-0.11-0.81-0.26
				c-0.28-0.18-0.52-0.43-0.66-0.75c-0.08-0.17-3.01-6.59-7.1-15.21c-4.75-10.01-11.05-22.97-16.25-32.54
				c-1.66,0.16-3.37,0.27-5.13,0.34c-0.02,0-0.05,0-0.07,0c-0.92,0-1.68-0.73-1.71-1.65c-0.02-0.47,0.16-0.91,0.46-1.23
				c0.3-0.32,0.72-0.53,1.19-0.55c1.17-0.05,2.32-0.11,3.44-0.2c0.63-0.05,1.26-0.1,1.88-0.17c0.63-0.06,1.24-0.13,1.85-0.21
				c14.05-1.73,23.7-6.9,28.72-15.43c8.95-15.2,1-37.18-2.22-44.72l-17.58,24.74l-2.22,3.12l-2.75,3.87L231.14,77.4l-0.78,1.09
				l-0.27,0.37l-1.05,1.48l-1.5,2.11l-0.99,1.39l-1.22,1.71c-0.04,0.06-0.1,0.11-0.15,0.17c-0.58,0.62-1.54,0.74-2.25,0.24
				c-0.77-0.55-0.95-1.62-0.4-2.39l2.15-3.02l2.16-3.04c-4.48-5.58-10.21-11.19-17.3-15.41c-0.49-0.29-0.99-0.58-1.5-0.86
				c-0.5-0.28-1.01-0.55-1.53-0.81c-5.16-2.63-10.97-4.52-17.48-5.2l-26.81-0.28l-4.33-0.04l-11.24-0.12l-4.98-0.05l-29.98-0.31
				c-0.45,4.96-3.39,28.48-19.09,29.53l2.76,7.45l1.27,3.44l4.82,13.03c7.01-1.34,12.52-4.22,16.42-8.63
				c1.24-1.4,2.26-2.89,3.09-4.4c0.63-1.14,1.14-2.29,1.57-3.44c2.72-7.21,1.91-14,1.9-14.09c-0.12-0.94,0.54-1.8,1.49-1.92
				c0.94-0.12,1.8,0.54,1.92,1.49c0.05,0.4,0.85,7.06-1.64,14.53c-0.38,1.13-0.84,2.28-1.38,3.44c-1.07,2.28-2.49,4.55-4.38,6.68
				c-5.9,6.65-14.85,10.22-26.63,10.62c1.27,1.37,2.61,2.72,4.05,4.04c13.31,12.24,31.06,19.46,52.96,21.58
				c1.3,0.13,2.6,0.24,3.92,0.33c3.11,0.21,6.3,0.32,9.57,0.33c1.29,0.01,2.6-0.01,3.92-0.03c2.48-0.05,4.99-0.14,7.55-0.3
				c0.04,0,0.07,0,0.11,0c0.49,0,0.97,0.21,1.29,0.59c0.35,0.4,0.5,0.94,0.39,1.46c-0.03,0.13-1.57,8.17-1.61,19.7
				c-0.02,5.61,0.31,12.04,1.35,18.79c0.31,2,0.67,4.03,1.11,6.07c1.9,8.87,4.88,16.87,8.88,23.92c1.07,1.89,2.22,3.71,3.44,5.46
				c0,0,0,0,0,0c1.14,1.64,2.35,3.23,3.62,4.75c3.14,3.75,6.68,7.12,10.61,10.09c0.69,0.52,1.39,1.04,2.11,1.54
				c0.68,0.48,1.37,0.94,2.08,1.4c3.52,2.28,7.32,4.28,11.37,6c-3.51-13.3-7.16-25.56-7.22-25.79c-0.27-0.91,0.25-1.87,1.16-2.14
				c0.91-0.27,1.87,0.25,2.14,1.16c0.03,0.11,0.12,0.39,0.24,0.81c0.96,3.25,4.46,15.19,7.66,27.52c0.19,0.72,0.37,1.44,0.56,2.17
				c0.16,0.61,0.31,1.22,0.46,1.83c2.27,8.99,4.21,17.71,4.74,22.93c0.76,7.52-0.53,13.39-4.04,18.48
				c-1.09,1.58-1.74,3.02-1.96,4.31c-0.18,1.04-0.07,1.99,0.32,2.84c0.06,0.13,0.12,0.25,0.19,0.37c0.32,0.57,0.77,1.09,1.29,1.55
				c0.56,0.5,1.21,0.94,1.91,1.33c2.59,1.43,5.78,2.1,7.18,2.25c4.97,0.54,8.86-0.31,11.54-2.51c1.87-1.54,3.06-3.61,3.84-5.83
				c1.09-3.09,1.38-6.47,1.61-9.07c0.06-0.73,0.12-1.42,0.2-2.01c0.92-7.58,2.83-20.36,4.65-32.06c0.11-0.73,0.23-1.45,0.34-2.17
				c0.07-0.45,0.14-0.9,0.21-1.34c1.94-12.41,3.64-22.78,3.67-22.99c0,0,0-0.01,0-0.01c0.16-0.93,1.04-1.56,1.97-1.41
				c0.94,0.15,1.57,1.04,1.42,1.97c-0.03,0.2-1.64,10.05-3.52,22.03c1.76-0.21,3.63-0.43,5.63-0.67l2.76-0.33
				c16.12-1.93,50.64-5.89,77.69-8.98c0.74-0.08,1.47-0.17,2.19-0.25c-0.36-0.38-0.72-0.75-1.07-1.14c-0.94-1.04-1.8-2.11-2.61-3.2
				c-5.49-7.47-7.92-15.93-8.43-22.28c-0.08-0.95,0.63-1.77,1.57-1.85c0.94-0.08,1.77,0.63,1.85,1.57c0,0.01,0,0.02,0,0.03
				c0.6,7.35,4,17.77,12.31,25.57l0.86,0.78c0.59,0.52,1.2,1.03,1.84,1.52c0.11,0.08,0.22,0.17,0.33,0.25
				c0.56,0.43,1.15,0.84,1.75,1.24c0.55,0.37,1.12,0.73,1.71,1.08c1.08,0.64,2.21,1.24,3.41,1.79c0.62,0.29,1.26,0.56,1.91,0.83
				c0.61,0.25,1.24,0.48,1.88,0.7c3.91,1.36,8.36,2.25,13.39,2.52c1.58,0.09,2.16,1.71,3.02,5.13c0.52,2.05,1.13,4.9,1.81,8.46
				c1.16,6.03,2.16,12.13,2.17,12.19c0.02,0.09,0.02,0.19,0.02,0.29c-0.01,1.44-0.14,14.22-2.57,18.42
				c-0.71,1.22-1.18,2.35-1.43,3.38c-0.29,1.19-0.27,2.26,0.05,3.19c0.08,0.24,0.19,0.47,0.31,0.69c0.16,0.29,0.36,0.57,0.59,0.83
				c0.41,0.48,0.91,0.9,1.47,1.27c2.85,1.89,7.22,2.48,8.92,2.53c5,0.13,8.8-1.02,11.3-3.43c1.47-1.42,2.42-3.19,3.05-5.08
				c1.14-3.45,1.16-7.31,1.18-10.21c0-0.73,0.01-1.43,0.03-2.02c0.46-11.46,4.8-42.18,7.61-61.24c0.27-1.83,0.53-3.56,0.77-5.15
				c0.19-1.27,0.37-2.45,0.53-3.53c0.35-2.28,0.63-4.12,0.82-5.38c0.03-0.45,0.07-0.94,0.09-1.45c0.13-2.6,0.12-5.94-0.31-9.63
				c-0.53-4.58-1.59-8.78-3.14-12.58C416.12,177.24,415.83,176.6,415.53,175.96z M236.76,79.1c10.9-0.82,18.43-4.38,22.38-10.58
				c6.54-10.26,1.22-24.63,1.17-24.78c-0.34-0.89,0.11-1.88,1-2.21c0.89-0.34,1.88,0.11,2.21,1c0.25,0.65,5.98,16.1-1.47,27.83
				c-4.56,7.17-12.98,11.27-25.03,12.17c-0.04,0-0.09,0-0.13,0c-0.89,0-1.64-0.69-1.71-1.59C235.1,80,235.81,79.17,236.76,79.1z"/>
			<path class="st3" d="M381.55,284c1.48-2.55,2.07-11.46,2.11-16.58c-1.57-9.56-3.63-20.12-4.64-22.82
				c-4.29-0.29-8.18-1.01-11.7-2.06c0.31,1.97,0.65,4.25,1.01,6.83c1.07,7.69,2,15.48,2.01,15.55c0.01,0.07,0.01,0.14,0.01,0.21
				c-0.01,1.34-0.13,13.18-2.39,17.09c-1.57,2.72-1.9,4.94-0.98,6.58c0.06,0.1,0.12,0.2,0.18,0.29c2.02,3.03,7.9,3.87,9.86,3.92
				c0.96,0.03,1.88,0,2.74-0.08c-0.34-1.2-0.39-2.48-0.16-3.84C379.86,287.5,380.51,285.8,381.55,284z"/>
			<path d="M414.54,112.37c-0.94-1.35-2.64-1.79-4.13-1.08c-1.5,0.72-2.22,2.34-1.75,3.94c2.61,8.83,3.29,17.54,1.97,25.18
				c-1.06,6.14-3.39,11.7-6.95,16.65c-6.38-4.82-18-11.91-32.08-12.71c-25.44-1.45-99.02-5.35-108.66-5.86
				c-2.39-5.22-13.63-29.57-22.36-45.81c14.45-2.03,24.49-7.7,29.92-16.92c4.93-8.38,5.91-19.82,2.82-33.1
				c-2.3-9.9-5.98-17.26-6.14-17.57c-0.27-0.54-0.8-0.89-1.4-0.94c-0.6-0.04-1.18,0.23-1.53,0.72l-16.19,22.77
				c-0.03-1.85-0.15-3.73-0.37-5.66c-1.57-13.35-7.33-23.72-7.58-24.15c-0.29-0.51-0.82-0.84-1.4-0.87
				c-0.58-0.03-1.15,0.24-1.49,0.71l-28.67,39.9c-5.63-2.94-12.02-5.06-19.23-5.8c-0.05-0.01-0.1-0.01-0.16-0.01l-29.6-0.31
				c-0.37-0.45-0.74-0.89-1.11-1.33c-0.41-0.47-0.82-0.94-1.23-1.41c-0.83-0.93-1.69-1.84-2.56-2.72c-2.63-2.66-5.44-5.13-8.42-7.39
				c-1.49-1.13-3.02-2.21-4.59-3.23c-2.09-1.36-4.26-2.62-6.48-3.78c-1.11-0.58-2.24-1.13-3.38-1.65c-1.14-0.52-2.3-1.02-3.47-1.49
				c-1.76-0.7-3.55-1.34-5.36-1.91c-1.21-0.38-2.44-0.73-3.67-1.06c-1.85-0.48-3.74-0.9-5.64-1.24c-1.27-0.23-2.55-0.43-3.84-0.59
				c-1.29-0.17-2.59-0.3-3.9-0.4c-1.97-0.15-3.95-0.23-5.96-0.23c-10.68,0-20.86,2.19-30.12,6.16c-1.16,0.5-2.3,1.02-3.43,1.57
				c-2.82,1.38-5.54,2.92-8.16,4.62c-1.05,0.68-2.08,1.39-3.09,2.11c-0.51,0.36-1.01,0.74-1.5,1.11c-0.99,0.75-1.97,1.53-2.92,2.33
				c-0.48,0.4-0.95,0.8-1.42,1.22c-0.94,0.82-1.85,1.67-2.75,2.53c-0.9,0.87-1.77,1.75-2.63,2.66C38.78,52.8,34.42,58.99,31,65.76
				c-0.28,0.56-0.56,1.13-0.84,1.7c-0.82,1.71-1.57,3.46-2.26,5.25c-0.35,0.89-0.68,1.79-0.99,2.7c-0.31,0.91-0.61,1.82-0.9,2.74
				c-0.38,1.23-0.72,2.47-1.04,3.72s-0.61,2.52-0.86,3.8c-0.1,0.47-0.19,0.94-0.27,1.42c-0.26,1.42-0.48,2.86-0.66,4.31
				c0,0-13.95,0-13.95,0c0,0,0,196.02,0,196.02c0,0,181.54,0,181.54,0v-67.62c0.31,0.39,0.62,0.78,0.94,1.17
				c4.16,4.97,8.97,9.3,14.4,12.97c2.58,11.66,4.78,22.48,5.29,27.58c0.46,4.55,0.48,10.49-3.45,16.18
				c-2.7,3.91-3.35,7.45-1.94,10.54c0.14,0.3,0.3,0.6,0.47,0.88h-0.91c-3.39,0-6.14,2.75-6.14,6.14v0.26c0,3.39,2.75,6.14,6.14,6.14
				h206.73c3.39,0,6.14-2.75,6.14-6.14v-0.26c0-3.36-2.7-6.09-6.05-6.13c1-3.68,1.03-7.47,1.04-10.2c0-0.73,0.01-1.37,0.03-1.91
				c0.2-5.1,0.81-10.19,1.39-15.26c0.81-7.01,1.73-14.01,2.68-21c0.96-7,1.95-14,2.98-21c0.42-2.9,0.85-5.8,1.29-8.71
				c0.52-3.46,1.15-6.91,1.45-10.41c0.3-3.49,0.11-6.96-0.29-10.44c-0.67-5.84-2.18-11.2-4.47-15.96c1.61-3.04,3.21-6.62,4.51-10.66
				C426.93,151.35,428.65,132.55,414.54,112.37z M238.35,22c1.76,3.78,4.9,11.51,5.94,20.5c0.41,3.59,0.47,7,0.16,10.24
				l-15.53,21.84c-4.56-5.54-10.31-11.06-17.36-15.31L238.35,22z M31.79,72.26c3.73-8.93,9.06-16.95,15.86-23.84
				c6.79-6.89,14.7-12.29,23.51-16.07c9.11-3.91,18.79-5.89,28.77-5.89c9.98,0,19.66,1.98,28.78,5.89
				c8.81,3.77,16.72,9.18,23.51,16.07c0.96,0.98,1.9,1.98,2.8,3l-12-0.12c-5.23-4.62-11.1-8.34-17.52-11.09
				c-8.1-3.47-16.71-5.23-25.57-5.23c-8.87,0-17.47,1.76-25.57,5.23c-7.82,3.35-14.84,8.15-20.87,14.26
				c-6.03,6.11-10.76,13.22-14.06,21.13c-2.12,5.08-3.59,10.37-4.41,15.78h-8.39C27.5,84.81,29.22,78.4,31.79,72.26z M77.38,59.67
				c-1.37,0-2.47-1.11-2.47-2.47c0-1.37,1.11-2.47,2.47-2.47h19.56c1.37,0,2.47,1.11,2.47,2.47c0,1.37-1.11,2.47-2.47,2.47H77.38z
				 M91.71,91.38l1.27,3.44L98,108.37c-2.18,0.25-4.49,0.36-6.92,0.35c-0.06,0-0.12,0.01-0.19,0.02c-3.77-4.61-6.73-9.37-9.04-13.92
				c-0.59-1.16-1.14-2.31-1.65-3.44c-1.68-3.72-2.93-7.21-3.86-10.28c-0.3-0.99-0.58-1.97-0.83-2.91c5.16,3.32,9.59,5.04,13.39,5.59
				L91.71,91.38z M78.23,50.62c-0.71-0.07-4.09-0.24-6.53,2.25c-2.1,2.13-2.83,5.49-2.18,9.97c0.03,1.06,0.38,8.78,3.5,19.13
				c0.86,2.84,1.98,6.03,3.43,9.41H38.51c0.11-0.7,0.23-1.4,0.37-2.09c0.13-0.69,0.28-1.38,0.43-2.07c0.12-0.51,0.24-1.01,0.37-1.52
				c0.26-1.01,0.54-2.01,0.84-2.99c0.15-0.49,0.31-0.98,0.47-1.47c0.33-0.98,0.68-1.94,1.05-2.9c0.19-0.48,0.38-0.95,0.57-1.42
				c0.39-0.94,0.81-1.87,1.25-2.79c0.44-0.92,0.9-1.83,1.37-2.72c0.48-0.89,0.98-1.77,1.5-2.64c0.78-1.3,1.6-2.57,2.47-3.81
				c0.58-0.82,1.18-1.63,1.79-2.43c0.92-1.19,1.89-2.35,2.89-3.47c11.38-12.69,27.8-20.66,46.05-20.66
				c14.14,0,27.17,4.78,37.62,12.83L78.23,50.62z M187.32,283.97H12.65V94.82h10.16h0h3.45h8.34h3.46h39.96
				c3.76,7.78,9.32,16.29,17.5,23.83c13.46,12.4,31.2,19.85,52.94,22.29c1.33,0.15,2.68,0.28,4.04,0.39
				c3.19,0.26,6.46,0.42,9.81,0.48c0.89,0.01,1.78,0.02,2.68,0.02c0.44,0,0.88-0.01,1.32-0.01c2.47-0.02,4.98-0.09,7.54-0.22
				c-0.94,6.08-3.01,23.97,1.21,43.68c2.42,11.34,6.54,21.34,12.26,29.84V283.97z M221.09,292.4c-0.46-0.03-0.92-0.06-1.4-0.11
				c-1.67-0.18-5.93-1.11-8.62-3.19c-0.84-0.65-1.54-1.42-1.95-2.31c-0.87-1.91-0.32-4.31,1.65-7.15c3.51-5.09,4.8-10.96,4.04-18.48
				c-0.48-4.77-2.35-14.21-4.62-24.67c3.57,2.08,7.38,3.91,11.43,5.48c2.48,9.65,4.69,19.25,5.23,24.68
				c0.87,8.65-1.39,13.19-3.45,16.18c-1.53,2.21-2.4,4.31-2.61,6.27C220.66,290.24,220.77,291.35,221.09,292.4z M363.38,289.1
				H254.13c0.94-3.18,1.22-6.38,1.43-8.77c0.06-0.73,0.12-1.36,0.18-1.9c0.94-7.74,2.92-20.96,4.78-32.87
				c2.05-0.24,4.23-0.5,6.59-0.78l2.76-0.33c17.15-2.06,55.18-6.41,82.83-9.57c3.08,2.52,6.7,4.71,10.93,6.38
				c0.99,5.97,2.25,15.26,3.28,23.96c-0.03,4.72-0.58,12.95-1.93,15.29C363.12,283.73,362.58,286.61,363.38,289.1z M379.75,292.94
				c-0.87,0.08-1.78,0.11-2.74,0.08c-1.96-0.05-7.84-0.89-9.86-3.92c-0.06-0.09-0.12-0.19-0.18-0.29c-0.92-1.65-0.59-3.86,0.98-6.58
				c2.26-3.92,2.38-15.76,2.39-17.09c0-0.07,0-0.14-0.01-0.21c-0.01-0.08-0.93-7.86-2.01-15.55c-0.36-2.58-0.7-4.86-1.01-6.83
				c3.52,1.05,7.41,1.77,11.7,2.06c1.01,2.7,3.07,13.26,4.64,22.82c-0.03,5.12-0.63,14.03-2.11,16.58c-1.04,1.8-1.7,3.51-1.97,5.1
				C379.36,290.46,379.41,291.74,379.75,292.94z M419.52,190.48c0.43,3.69,0.44,7.03,0.31,9.63c-0.03,0.52-0.06,1-0.09,1.45
				c-0.19,1.26-0.47,3.1-0.82,5.38c-0.16,1.08-0.34,2.26-0.53,3.53c-0.24,1.59-0.5,3.32-0.77,5.15
				c-2.82,19.06-7.16,49.78-7.61,61.24c-0.02,0.6-0.03,1.29-0.03,2.02c-0.02,2.9-0.04,6.76-1.18,10.21
				c-0.62,1.89-1.58,3.65-3.05,5.08c-2.5,2.42-6.3,3.57-11.3,3.43c-1.7-0.05-6.07-0.63-8.92-2.53c-0.56-0.37-1.06-0.79-1.47-1.27
				c-0.22-0.26-0.42-0.54-0.59-0.83c-0.12-0.22-0.23-0.45-0.31-0.69c-0.32-0.93-0.34-2-0.05-3.19c0.25-1.03,0.72-2.16,1.43-3.38
				c2.43-4.21,2.56-16.98,2.57-18.42c0-0.1-0.01-0.19-0.02-0.29c-0.01-0.06-1.01-6.16-2.17-12.19c-0.69-3.56-1.3-6.4-1.81-8.46
				c-0.86-3.42-1.44-5.05-3.02-5.13c-5.04-0.27-9.48-1.17-13.39-2.52c-0.64-0.22-1.27-0.45-1.88-0.7c-0.65-0.26-1.29-0.54-1.91-0.83
				c-1.19-0.55-2.33-1.15-3.41-1.79c-0.59-0.35-1.16-0.71-1.71-1.08c-0.6-0.4-1.19-0.82-1.75-1.24c-0.11-0.08-0.22-0.17-0.33-0.25
				c-0.64-0.49-1.25-1-1.84-1.52l-0.86-0.78c-8.31-7.8-11.71-18.21-12.31-25.57c0-0.01,0-0.02,0-0.03
				c-0.08-0.95-0.91-1.65-1.85-1.57c-0.95,0.08-1.65,0.9-1.57,1.85c0.51,6.35,2.94,14.81,8.43,22.28c0.8,1.09,1.67,2.16,2.61,3.2
				c0.35,0.38,0.7,0.76,1.07,1.14c-0.73,0.08-1.46,0.17-2.19,0.25c-27.05,3.09-61.58,7.05-77.69,8.98l-2.76,0.33
				c-2,0.24-3.87,0.47-5.63,0.67c1.88-11.98,3.49-21.83,3.52-22.03c0.15-0.94-0.48-1.82-1.42-1.97c-0.93-0.15-1.81,0.48-1.97,1.41
				c0,0,0,0.01,0,0.01c-0.03,0.21-1.73,10.58-3.67,22.99c-0.07,0.45-0.14,0.89-0.21,1.34c-0.11,0.72-0.22,1.44-0.34,2.17
				c-1.82,11.7-3.73,24.48-4.65,32.06c-0.07,0.59-0.13,1.28-0.2,2.01c-0.23,2.6-0.52,5.98-1.61,9.07c-0.78,2.22-1.97,4.29-3.84,5.83
				c-2.68,2.21-6.57,3.05-11.54,2.51c-1.4-0.15-4.59-0.82-7.18-2.25c-0.7-0.39-1.35-0.83-1.91-1.33c-0.52-0.46-0.96-0.98-1.29-1.55
				c-0.07-0.12-0.13-0.25-0.19-0.37c-0.39-0.85-0.49-1.8-0.32-2.84c0.22-1.3,0.87-2.74,1.96-4.31c3.51-5.09,4.8-10.96,4.04-18.48
				c-0.52-5.22-2.47-13.94-4.74-22.93c-0.15-0.61-0.31-1.22-0.46-1.83c-0.18-0.72-0.37-1.45-0.56-2.17
				c-3.2-12.33-6.7-24.27-7.66-27.52c-0.12-0.42-0.21-0.7-0.24-0.81c-0.27-0.91-1.23-1.43-2.14-1.16c-0.91,0.27-1.43,1.23-1.16,2.14
				c0.07,0.22,3.71,12.49,7.22,25.79c-4.05-1.72-7.85-3.72-11.37-6c-0.7-0.46-1.4-0.92-2.08-1.4c-0.71-0.5-1.42-1.01-2.11-1.54
				c-3.92-2.98-7.47-6.34-10.61-10.09c-1.27-1.52-2.47-3.1-3.62-4.75c0,0,0,0,0,0c-1.22-1.75-2.36-3.57-3.44-5.46
				c-4-7.05-6.98-15.05-8.88-23.92c-0.44-2.04-0.81-4.07-1.11-6.07c-1.03-6.75-1.37-13.18-1.35-18.79
				c0.04-11.53,1.59-19.57,1.61-19.7c0.1-0.52-0.04-1.06-0.39-1.46c-0.33-0.37-0.8-0.59-1.29-0.59c-0.04,0-0.07,0-0.11,0
				c-2.56,0.16-5.08,0.25-7.55,0.3c-1.32,0.03-2.63,0.04-3.92,0.03c-3.27-0.01-6.46-0.12-9.57-0.33c-1.32-0.09-2.63-0.2-3.92-0.33
				c-21.9-2.12-39.66-9.34-52.96-21.58c-1.43-1.32-2.78-2.67-4.05-4.04c11.78-0.4,20.73-3.97,26.63-10.62
				c1.89-2.13,3.31-4.4,4.38-6.68c0.54-1.15,1-2.3,1.38-3.44c2.49-7.47,1.69-14.13,1.64-14.53c-0.12-0.94-0.98-1.61-1.92-1.49
				c-0.94,0.12-1.61,0.98-1.49,1.92c0.01,0.09,0.82,6.88-1.9,14.09c-0.43,1.14-0.95,2.3-1.57,3.44c-0.83,1.51-1.85,3-3.09,4.4
				c-3.91,4.4-9.41,7.29-16.42,8.63l-4.82-13.03l-1.27-3.44l-2.76-7.45c15.7-1.05,18.64-24.57,19.09-29.53l29.98,0.31l4.98,0.05
				l11.24,0.12l4.33,0.04l26.81,0.28c6.51,0.68,12.32,2.56,17.48,5.2c0.52,0.26,1.03,0.54,1.53,0.81c0.51,0.28,1,0.57,1.5,0.86
				c7.1,4.23,12.82,9.83,17.3,15.41l-2.16,3.04l-2.15,3.02c-0.55,0.77-0.37,1.85,0.4,2.39c0.71,0.51,1.67,0.39,2.25-0.24
				c0.05-0.05,0.1-0.11,0.15-0.17l1.22-1.71l0.99-1.39l1.5-2.11l1.05-1.48l0.27-0.37l0.78-1.09l11.62-16.35l2.75-3.87l2.22-3.12
				l17.58-24.74c3.22,7.54,11.17,29.52,2.22,44.72c-5.02,8.53-14.67,13.7-28.72,15.43c-0.61,0.08-1.23,0.14-1.85,0.21
				c-0.62,0.06-1.24,0.12-1.88,0.17c-1.12,0.09-2.27,0.15-3.44,0.2c-0.47,0.02-0.89,0.23-1.19,0.55c-0.3,0.32-0.47,0.76-0.46,1.23
				c0.04,0.93,0.8,1.65,1.71,1.65c0.02,0,0.05,0,0.07,0c1.76-0.07,3.47-0.18,5.13-0.34c5.19,9.57,11.5,22.53,16.25,32.54
				c4.09,8.62,7.02,15.04,7.1,15.21c0.14,0.32,0.38,0.57,0.66,0.75c0.24,0.15,0.52,0.24,0.81,0.26c0.82,0.04,82.58,4.36,109.68,5.91
				c13.02,0.74,24.07,7.47,30.13,12.01c0.49,0.37,0.94,0.72,1.37,1.05c0.49,0.39,0.94,0.75,1.34,1.08c1.45,1.21,2.26,2,2.29,2.04
				c0.03,0.03,0.05,0.05,0.08,0.07c3.26,2.86,5.93,6.23,8,10.08c0.32,0.6,0.63,1.22,0.93,1.85c0.3,0.63,0.58,1.28,0.85,1.94
				C417.94,181.7,418.99,185.9,419.52,190.48z M419.76,162.39c-0.95,2.99-2.1,5.72-3.28,8.16c-2.08-3.41-4.61-6.45-7.57-9.05
				c-0.23-0.23-1.11-1.08-2.54-2.28c3.92-5.4,6.48-11.48,7.64-18.21c1.39-8.07,0.77-16.82-1.86-26.05
				c5.61,8.21,8.95,16.82,9.92,25.6C422.87,147.75,422.09,155.1,419.76,162.39z"/>
			<path d="M420.7,110.98c-0.44-0.5-1.2-0.54-1.7-0.1c-0.5,0.44-0.54,1.2-0.1,1.7c9.21,10.32,11.03,24.51,11.04,24.65
				c0.07,0.61,0.59,1.06,1.19,1.06c0.05,0,0.1,0,0.15-0.01c0.66-0.08,1.13-0.68,1.05-1.34C432.26,136.33,430.43,121.87,420.7,110.98
				z"/>
			<path d="M404.86,132.57c-0.17,3.52-1.12,5.71-1.13,5.75c-0.27,0.61,0,1.31,0.61,1.59c0.16,0.07,0.33,0.1,0.49,0.1
				c0.46,0,0.9-0.27,1.1-0.71c0.18-0.4,4.27-9.86-2.52-21.97c-0.32-0.58-1.06-0.79-1.64-0.46c-0.58,0.32-0.79,1.06-0.46,1.64
				C404.54,124.25,405.02,129.33,404.86,132.57z"/>
			<path d="M236.88,82.53c0.04,0,0.09,0,0.13,0c12.05-0.91,20.47-5,25.03-12.17c7.45-11.73,1.72-27.17,1.47-27.83
				c-0.34-0.89-1.33-1.33-2.21-1c-0.89,0.34-1.33,1.33-1,2.21c0.05,0.14,5.37,14.52-1.17,24.78c-3.95,6.2-11.48,9.76-22.38,10.58
				c-0.95,0.07-1.66,0.9-1.58,1.84C235.24,81.84,235.99,82.53,236.88,82.53z"/>
			<g>
				<path class="st4" d="M143.26,166.48c-0.54-1.02-1.11-2.01-1.72-2.98c-1.5-2.4-3.2-4.66-5.08-6.76
					c-0.78-0.87-1.59-1.71-2.42-2.52c-8.81-8.53-20.82-13.79-34.06-13.79c-13.26,0-25.28,5.27-34.1,13.83
					c-0.84,0.81-1.64,1.65-2.42,2.52c-1.88,2.1-3.58,4.36-5.07,6.77c-0.61,0.97-1.18,1.97-1.72,2.98
					c-3.61,6.83-5.66,14.6-5.66,22.86c0,27.05,21.93,48.97,48.97,48.97c27.05,0,48.97-21.92,48.97-48.97
					C148.95,181.11,146.89,173.31,143.26,166.48z M99.98,221.92c-17.96,0-32.52-14.56-32.52-32.52c0-5.44,1.34-10.57,3.7-15.08
					c0.54-1.03,1.13-2.03,1.77-2.99c1.7-2.54,3.76-4.83,6.09-6.8c1.08-0.91,2.22-1.76,3.42-2.52c5.06-3.25,11.08-5.13,17.54-5.13
					c6.45,0,12.45,1.88,17.51,5.11c1.2,0.77,2.34,1.61,3.42,2.52c2.34,1.97,4.39,4.25,6.1,6.79c0.64,0.96,1.24,1.95,1.78,2.98
					c2.38,4.52,3.72,9.66,3.72,15.12C132.51,207.36,117.94,221.92,99.98,221.92z"/>
				<path class="st4" d="M109.55,175.85c-2.63-1.8-5.82-2.86-9.25-2.86c-3.48,0-6.71,1.09-9.37,2.94c-1.22,0.85-2.32,1.86-3.27,3
					c-2.35,2.84-3.77,6.49-3.77,10.46c0,9.06,7.34,16.4,16.4,16.4c9.06,0,16.4-7.34,16.4-16.4c0-4.03-1.45-7.72-3.86-10.57
					C111.88,177.69,110.78,176.69,109.55,175.85z"/>
			</g>
			<g>
				<path class="st4" d="M197.29,69.01c-8.42-5.85-19.1-5.99-27.46-1.25c-1,0.57-1.97,1.21-2.9,1.92c-2.08,1.59-3.95,3.51-5.52,5.78
					c-0.23,0.32-0.44,0.65-0.65,0.98c-0.84,1.34-1.54,2.73-2.12,4.15c-1.4,3.48-1.99,7.17-1.82,10.8c0.06,1.15,0.18,2.3,0.39,3.44
					c0.72,3.9,2.33,7.64,4.78,10.88c0.93,1.23,1.98,2.38,3.14,3.45c0.85,0.77,1.75,1.51,2.71,2.18c1.59,1.11,3.27,2,4.99,2.71
					c1.08,0.44,2.18,0.81,3.3,1.1c3.68,0.95,7.5,1.05,11.16,0.36c1.16-0.22,2.31-0.51,3.44-0.89l0,0c5.09-1.7,9.69-4.99,12.98-9.73
					C211.87,93.19,208.98,77.13,197.29,69.01z M196.63,99.94c-1.58,2.27-3.6,4.03-5.88,5.27c0,0,0,0,0,0
					c-1.1,0.59-2.25,1.07-3.44,1.41c-3.28,0.94-6.83,0.9-10.15-0.2c-1.15-0.38-2.28-0.9-3.36-1.54c-0.34-0.2-0.68-0.42-1.01-0.65
					c-3.39-2.36-5.66-5.72-6.7-9.4c-0.32-1.12-0.51-2.27-0.6-3.44c-0.27-3.77,0.69-7.65,3.02-10.99c0.54-0.77,1.13-1.48,1.76-2.14
					c0.87-0.9,1.82-1.69,2.84-2.36c5.68-3.76,13.3-3.91,19.23,0.21C200.11,81.51,202.03,92.18,196.63,99.94z"/>
				<path class="st4" d="M187.51,83.08c-3.85-2.68-9.12-1.78-11.88,1.98c-0.05,0.06-0.09,0.12-0.14,0.18
					c-1.3,1.86-1.75,4.06-1.46,6.14c0.17,1.21,0.6,2.39,1.27,3.44c0.5,0.78,1.13,1.49,1.89,2.1c0.15,0.12,0.3,0.23,0.46,0.34
					c2.98,2.07,6.81,2,9.67,0.13c0.9-0.59,1.7-1.35,2.35-2.29c0.47-0.68,0.83-1.41,1.09-2.16c0,0,0,0,0,0
					C191.96,89.38,190.74,85.33,187.51,83.08z"/>
			</g>
			<path class="st4" d="M260.25,140.87c-0.08-0.17-3.01-6.59-7.1-15.21l-62.39,27.61l0,0l-3.44,1.52l-11.34,5.02
				c-0.02,5.61,0.31,12.04,1.35,18.79l10-4.42l3.44-1.52h0l70.16-31.04C260.63,141.44,260.39,141.18,260.25,140.87z"/>
		</g>
	</g>
</g>
</svg>
