<?xml version="1.0" encoding="UTF-8"?>
<svg xmlns="http://www.w3.org/2000/svg" xmlns:xlink="http://www.w3.org/1999/xlink" width="184px" height="184px" viewBox="0 0 24 24" version="1.1">
  <g id="Icon/Fulfillment/OrderPickupHub/184px" stroke="none" stroke-width="1" fill="none" fill-rule="evenodd">
    <path fill="#cc0000" d="M 14.039062 1.554688 L 14.039062 5.019531 L 9.957031 5.019531 L 9.957031 1.554688 L 8.445312 2.917969 L 8.445312 5.019531 L 4.46875 5.019531 L 4.46875 22.605469 L 6.660156 22.605469 L 6.660156 17.898438 L 8.105469 17.898438 L 8.105469 22.605469 L 8.773438 22.605469 L 8.773438 17.898438 L 11.664062 17.898438 L 11.664062 22.605469 L 12.347656 22.605469 L 12.347656 17.898438 L 15.238281 17.898438 L 15.238281 22.605469 L 15.894531 22.605469 L 15.894531 17.898438 L 17.335938 17.898438 L 17.335938 22.605469 L 19.527344 22.605469 L 19.527344 5.019531 L 15.550781 5.019531 L 15.550781 2.917969 Z M 14.039062 1.554688 "/>
    <path fill="#7f0000" d="M 9.957031 3.105469 L 14.039062 3.105469 L 14.039062 1.554688 L 9.957031 1.554688 Z M 9.957031 3.105469 "/>
    <path fill="#ffffff" d="M 12 7 C 10.265625 7 8.859375 8.40625 8.859375 10.136719 C 8.859375 11.871094 10.265625 13.277344 12 13.277344 C 13.730469 13.277344 15.136719 11.871094 15.136719 10.136719 C 15.136719 8.40625 13.730469 7 12 7 Z M 12 12.230469 C 10.84375 12.230469 9.90625 11.292969 9.90625 10.136719 C 9.90625 8.984375 10.84375 8.046875 12 8.046875 C 13.152344 8.046875 14.089844 8.984375 14.089844 10.136719 C 14.089844 11.292969 13.152344 12.230469 12 12.230469 Z M 12 11.183594 C 12.574219 11.183594 13.042969 10.714844 13.042969 10.136719 C 13.042969 9.5625 12.574219 9.09375 12 9.09375 C 11.421875 9.09375 10.953125 9.5625 10.953125 10.136719 C 10.953125 10.714844 11.421875 11.183594 12 11.183594 Z M 12 11.183594 "/>
    <path fill="#d6d6d6" d="M 12.027344 15.414062 C 10.726562 15.414062 9.644531 15.554688 8.804688 15.726562 L 8.804688 17.242188 L 15.253906 17.242188 L 15.253906 15.71875 C 14.414062 15.550781 13.332031 15.414062 12.027344 15.414062 Z M 15.921875 15.875 L 15.921875 17.242188 L 17.367188 17.242188 L 17.367188 16.363281 C 17.347656 16.355469 16.851562 16.113281 15.921875 15.875 Z M 6.691406 17.242188 L 6.691406 16.382812 C 6.691406 16.382812 7.191406 16.128906 8.132812 15.882812 L 8.132812 17.242188 Z M 6.691406 22.597656 L 8.132812 22.597656 L 8.132812 17.917969 L 6.691406 17.917969 Z M 17.367188 22.597656 L 15.921875 22.597656 L 15.921875 17.917969 L 17.367188 17.917969 Z M 12.375 22.597656 L 15.265625 22.597656 L 15.265625 17.917969 L 12.375 17.917969 Z M 11.695312 22.597656 L 8.804688 22.597656 L 8.804688 17.917969 L 11.695312 17.917969 Z M 11.695312 22.597656 "/>
    <path fill="#888888" d="M 9.789062 19.464844 C 9.789062 19.210938 9.996094 19.003906 10.25 19.003906 C 10.503906 19.003906 10.707031 19.210938 10.707031 19.464844 C 10.707031 19.71875 10.503906 19.925781 10.25 19.925781 C 9.996094 19.925781 9.789062 19.71875 9.789062 19.464844 Z M 13.359375 19.464844 C 13.359375 19.210938 13.566406 19.003906 13.820312 19.003906 C 14.074219 19.003906 14.28125 19.210938 14.28125 19.464844 C 14.28125 19.71875 14.074219 19.925781 13.820312 19.925781 C 13.566406 19.925781 13.359375 19.71875 13.359375 19.464844 Z M 13.359375 19.464844 "/>
    <path fill="#7f0000" d="M 12.027344 14.75 C 8.582031 14.75 6.691406 15.714844 6.691406 15.714844 L 6.691406 16.382812 C 6.691406 16.382812 8.582031 15.414062 12.027344 15.414062 C 15.46875 15.414062 17.367188 16.363281 17.367188 16.363281 L 17.367188 15.699219 C 17.367188 15.699219 15.46875 14.75 12.027344 14.75 "/>
  </g>
</svg>
