<svg width="171" height="190" viewBox="0 0 171 190" fill="none" xmlns="http://www.w3.org/2000/svg">
<path fill-rule="evenodd" clip-rule="evenodd" d="M38.3369 170.121C38.3369 177.352 32.1977 183.249 24.5958 183.249C16.9945 183.249 10.8223 177.383 10.8223 170.121C10.8223 162.86 17.027 156.994 24.5958 156.994C32.1652 156.994 38.3369 162.891 38.3369 170.121ZM24.6279 150.354C13.2258 150.354 4 159.198 4 170.06C4 180.984 13.2258 189.766 24.6279 189.735C36.0304 189.735 45.2557 180.921 45.2557 170.06C45.2557 159.167 35.9974 150.354 24.6279 150.354ZM61.2128 159.693C53.1968 159.693 48.3086 165.063 48.3086 172.768C48.3086 179.773 53.1968 185.143 61.0666 185.143C67.8118 185.143 72.3093 181.594 73.2375 175.243H66.541C66.0523 178.465 64.0969 180.146 61.0174 180.146C56.9605 180.146 55.2497 176.504 55.2497 172.535C55.2497 168.612 56.9605 164.689 61.1641 164.689C64.1462 164.689 65.8569 166.091 66.2964 168.846H73.0909C72.7488 163.056 67.6652 159.693 61.2128 159.693ZM75.8262 184.487H82.7673V160.346H75.8262V184.487ZM75.3867 154.089C75.3867 152.035 77.1462 150.354 79.297 150.354C81.4473 150.354 83.2073 152.035 83.2073 154.089C83.2073 156.144 81.4473 157.825 79.297 157.825C77.1462 157.825 75.3867 156.144 75.3867 154.089ZM31.4825 170.091C31.4825 166.457 28.3995 163.512 24.5958 163.512C20.792 163.512 17.709 166.457 17.709 170.091C17.709 173.724 20.792 176.67 24.5958 176.67C28.3995 176.67 31.4825 173.724 31.4825 170.091ZM85.9453 160.347H92.5438V164.83H92.6418C93.9618 161.795 97.2367 159.693 100.707 159.693C101.37 159.693 101.849 159.825 102.189 159.918L102.222 159.927V166.091C101.538 165.951 100.707 165.857 99.7295 165.857C94.6946 165.857 92.8864 169.173 92.8864 173.609V184.489H85.9453V160.347ZM115.467 159.693C107.451 159.693 102.562 165.063 102.562 172.768C102.562 179.773 107.451 185.143 115.321 185.143C122.066 185.143 126.563 181.594 127.492 175.243H120.795C120.306 178.465 118.351 180.146 115.271 180.146C111.214 180.146 109.504 176.504 109.504 172.535C109.504 168.612 111.214 164.689 115.418 164.689C118.4 164.689 120.111 166.091 120.551 168.846H127.345C127.003 163.056 121.92 159.693 115.467 159.693ZM130.035 184.488H136.976V151.146H130.035V184.488ZM152.13 164.689C155.355 164.689 157.017 166.184 157.702 169.826H146.41C146.704 166.651 148.757 164.689 152.13 164.689ZM152.373 159.693C144.748 159.693 139.469 165.157 139.469 172.441C139.469 179.866 144.357 185.143 152.373 185.143C158.434 185.143 162.345 182.481 164.202 177.017H158.092C157.555 178.698 155.208 180.146 152.569 180.146C148.609 180.146 146.605 178.185 146.409 174.029H164.642L164.691 172.815C164.691 165.67 160.341 159.693 152.373 159.693ZM166.749 181.539V181.985H165.766V184.49H165.226V181.985H164.248V181.539H166.749ZM168.775 183.849L167.923 181.539H167.162V184.49H167.677V182.212H167.685L168.542 184.49H168.988L169.844 182.212H169.852V184.49H170.367V181.539H169.615L168.784 183.849H168.775Z" fill="white"/>
<path fill-rule="evenodd" clip-rule="evenodd" d="M142.988 84.2821C142.988 116.829 116.604 143.213 84.0577 143.213C51.5108 143.213 25.127 116.829 25.127 84.2821C25.127 51.7355 51.5108 25.3516 84.0577 25.3516C116.604 25.3516 142.988 51.7355 142.988 84.2821Z" fill="#720000"/>
<path fill-rule="evenodd" clip-rule="evenodd" d="M73.6654 122.242C73.6654 122.242 69.5642 124.776 60.0414 128.154C51.5554 131.164 42.5251 131.039 42.4556 135.403C42.3833 139.926 49.8391 141.115 61.2233 137.584C73.2485 133.854 81.3809 127.309 81.3809 127.309L73.6654 122.242Z" fill="white"/>
<path fill-rule="evenodd" clip-rule="evenodd" d="M45.916 134.81C45.916 133.544 46.9829 132.518 48.2982 132.518C49.6136 132.518 50.6799 133.544 50.6799 134.81C50.6799 136.077 49.6136 137.103 48.2982 137.103C46.9829 137.103 45.916 136.077 45.916 134.81ZM45.4463 133.655C45.5447 134.067 45.2567 134.49 44.8042 134.6C44.3516 134.711 43.9046 134.468 43.8062 134.056C43.7084 133.645 43.9958 133.222 44.4483 133.111C44.9014 133 45.3484 133.244 45.4463 133.655ZM45.3467 135.665C45.2483 135.253 44.8018 135.01 44.3493 135.121C43.8962 135.231 43.6088 135.654 43.7066 136.066C43.805 136.477 44.2514 136.721 44.7045 136.61C45.1576 136.499 45.4451 136.076 45.3467 135.665ZM44.9958 137.775C44.8974 137.363 45.1854 136.94 45.638 136.829C46.0911 136.719 46.5375 136.962 46.6359 137.374C46.7343 137.785 46.4463 138.208 45.9938 138.319C45.5407 138.43 45.0937 138.186 44.9958 137.775Z" fill="#F7B3BF"/>
<path fill-rule="evenodd" clip-rule="evenodd" d="M69.306 130.598C68.9502 131.626 68.6433 132.585 68.3081 133.449C68.0563 134.108 67.7838 134.705 67.4336 135.307C68.4627 134.878 69.3533 134.479 69.8531 134.212C69.8636 133.749 69.8814 133.296 69.9115 132.868C70.0149 131.401 70.2862 129.489 70.6281 127.49C70.0549 128.636 69.6518 129.613 69.306 130.598Z" fill="#DDDDDD"/>
<mask id="mask0_1706_76670" style="mask-type:alpha" maskUnits="userSpaceOnUse" x="25" y="25" width="118" height="119">
<path fill-rule="evenodd" clip-rule="evenodd" d="M84.0575 143.213C116.603 143.213 142.988 116.829 142.988 84.2818C142.988 51.736 116.603 25.3516 84.0575 25.3516C51.5112 25.3516 25.127 51.736 25.127 84.2818C25.127 116.829 51.5112 143.213 84.0575 143.213Z" fill="white"/>
</mask>
<g mask="url(#mask0_1706_76670)">
<path fill-rule="evenodd" clip-rule="evenodd" d="M101.039 111.127C101.039 111.127 103.055 122.035 104.445 132.802C105.835 143.57 100.759 153.128 86.3718 152.859C71.2878 152.578 69.3948 140.005 69.8979 132.873C70.4539 124.991 74.7636 109.367 74.7636 109.367L101.039 111.127Z" fill="white"/>
<path fill-rule="evenodd" clip-rule="evenodd" d="M102.268 116.123C101.446 112.874 100.97 111.115 100.97 111.115L74.7646 109.367C74.7646 109.367 73.9251 112.412 72.9395 116.49C78.2743 118.286 90.3284 120.735 102.268 116.123Z" fill="#CC0000"/>
<path fill-rule="evenodd" clip-rule="evenodd" d="M101.079 111.344C97.4612 112.583 94.2267 113.842 90.9216 114.896C90.508 115.037 90.0983 115.18 89.6763 115.299L88.4382 115.705C87.5982 115.941 86.7831 116.222 85.9487 116.459C84.2947 116.964 82.6313 117.436 80.9607 117.898C78.0325 118.713 75.0649 119.478 72.0594 120.258C71.6647 122.019 71.2783 123.846 70.9414 125.624C71.091 125.628 71.2405 125.636 71.3901 125.637C75.1722 125.659 78.9693 125.185 82.6475 124.159C84.4871 123.656 86.2989 123.023 88.0529 122.24C89.8092 121.466 91.5143 120.559 93.1221 119.488C96.2749 117.41 99.1296 114.772 101.104 111.479C101.095 111.428 101.087 111.384 101.079 111.344Z" fill="#E8E8E8" fill-opacity="0.5" style="mix-blend-mode:multiply"/>
</g>
<path fill-rule="evenodd" clip-rule="evenodd" d="M113.379 125.876C109.655 121.222 103.504 116.96 102.267 116.125C99.6762 117.125 97.7109 117.675 95.1785 118.088L93.9043 120.654C93.9043 120.654 102.151 125.554 104.857 129.02C107.563 132.486 109.347 136.759 110.355 141.298C111.531 146.594 112.805 147.957 114.288 148.641C115.771 149.326 118.701 148.976 119.289 145.746C120.574 138.686 117.534 131.069 113.379 125.876Z" fill="white"/>
<path fill-rule="evenodd" clip-rule="evenodd" d="M115.853 148.927C115.916 145.575 115.035 143.472 115.115 145.442C115.169 146.771 115.098 148.084 115.039 148.869C115.297 148.916 115.571 148.937 115.853 148.927Z" fill="#BABABA"/>
<path fill-rule="evenodd" clip-rule="evenodd" d="M118.064 148.072C118.143 145.111 117.455 143.37 117.449 145.211C117.445 146.529 117.319 147.827 117.227 148.612C117.522 148.48 117.805 148.301 118.064 148.072Z" fill="#BABABA"/>
<path fill-rule="evenodd" clip-rule="evenodd" d="M101.773 127.799C102.637 128.836 103.447 129.872 104.209 130.927C104.068 129.887 103.925 128.851 103.778 127.831C102.418 126.491 100.534 125.055 98.7747 123.823C98.6936 123.765 98.5952 123.874 98.6552 123.954C99.6882 125.345 100.763 126.567 101.773 127.799Z" fill="#DDDDDD"/>
<path fill-rule="evenodd" clip-rule="evenodd" d="M76.041 51.7948C76.041 51.7948 96.4276 14.6275 103.801 14.5723C111.174 14.5172 100.055 49.3081 97.1198 54.4077L76.041 51.7948Z" fill="white"/>
<path fill-rule="evenodd" clip-rule="evenodd" d="M99.5761 48.5209C95.5555 47.4728 89.3683 47.4526 85.6346 48.3166C85.2271 48.4106 85.2299 49.001 85.6352 49.1051C87.5359 49.5931 89.3906 50.0046 91.2213 50.4746C93.5029 51.0335 98.0278 52.3608 98.0817 52.3782C98.6833 51.1438 99.5761 48.5209 99.5761 48.5209Z" fill="#BABABA"/>
<path fill-rule="evenodd" clip-rule="evenodd" d="M24.691 106.356C32.0195 130.078 108.07 135.164 116.753 83.9868C117.467 79.7788 120.893 52.9643 90.7988 49.1238C53.0939 44.313 17.9679 84.5941 24.691 106.356Z" fill="white"/>
<path fill-rule="evenodd" clip-rule="evenodd" d="M111.662 67.6668C111.662 67.6668 141.698 48.0953 152.482 55.6209C162.027 62.2802 136.875 105.882 104.863 102.548L111.662 67.6668Z" fill="white"/>
<path fill-rule="evenodd" clip-rule="evenodd" d="M116.59 87.8641C116.445 88.1545 116.006 88.0059 116.064 87.6862C116.689 84.2578 117.738 80.8997 119.193 77.6885C120.081 75.8181 121.05 73.9668 122.246 72.2445C122.807 71.3596 123.479 70.5497 124.121 69.7172C124.448 69.3052 124.82 68.928 125.167 68.5329L125.698 67.9464L126.264 67.3914C129.248 64.4026 133.039 62.1427 137.112 61.0529C139.146 60.5053 141.249 60.2711 143.322 60.3426C144.793 60.4141 146.265 60.597 147.666 60.995C147.976 61.0828 147.91 61.5438 147.588 61.5471C146.172 61.5612 144.781 61.6946 143.419 61.9333C141.505 62.262 139.648 62.7635 137.887 63.4812C134.363 64.9013 131.191 67.034 128.491 69.7251C127.127 71.0529 125.858 72.4994 124.7 74.0501C123.504 75.5721 122.46 77.2253 121.408 78.8874C119.661 81.7468 118.13 84.7728 116.59 87.8641Z" fill="#BABABA"/>
<path fill-rule="evenodd" clip-rule="evenodd" d="M83.6397 91.8729C87.7898 92.1161 91.349 88.9071 91.5886 84.7048C91.8288 80.5041 88.6593 76.9006 84.5086 76.6574C80.3601 76.4148 76.7998 79.6237 76.5597 83.825C76.3195 88.0268 79.4912 91.6297 83.6397 91.8729ZM83.2304 99.0567C91.2232 99.5244 98.0764 93.3441 98.5384 85.2529C99.0004 77.1622 92.8972 70.2232 84.9038 69.7554C76.9131 69.2871 70.0588 75.4674 69.5968 83.5581C69.1349 91.6493 75.2397 98.5889 83.2304 99.0567ZM62.2793 83.1308C62.9753 70.9481 73.2948 61.6439 85.3272 62.348C97.3607 63.0527 106.55 73.4996 105.854 85.6817C105.158 97.8645 94.8406 107.172 82.8065 106.467C70.7747 105.762 61.5832 95.313 62.2793 83.1308Z" fill="#CC0000"/>
<path fill-rule="evenodd" clip-rule="evenodd" d="M65.8144 66.7581C65.642 69.7745 63.088 72.0777 60.1087 71.9032C57.131 71.7287 54.8544 69.1429 55.0268 66.1265C55.1991 63.1112 57.7548 60.808 60.7324 60.9819C63.7118 61.1564 65.9867 63.7428 65.8144 66.7581ZM83.7629 89.7255C86.7422 89.9 89.2963 87.5967 89.4686 84.5803C89.641 81.565 87.366 78.9786 84.3867 78.8042C81.409 78.6302 78.8533 80.9335 78.681 83.9488C78.5092 86.9652 80.7853 89.551 83.7629 89.7255ZM24.6906 106.356C23.2968 101.844 23.7249 96.533 25.5784 90.9961C33.0037 92.7691 43.5117 96.5764 48.3601 104.473C53.7911 113.318 40.0042 117.348 29.9704 113.912C27.4092 111.691 25.5568 109.16 24.6906 106.356ZM64.8456 108.138C65.2153 107.176 65.4296 106.619 65.7405 106.619C66.5399 106.619 65.4163 119.156 54.0605 123.11C52.3894 122.905 50.7493 122.646 49.1543 122.329C51.5115 121.73 56.818 119.977 60.4578 115.697C63.1611 112.519 64.2234 109.756 64.8456 108.138Z" fill="black"/>
</svg>
